<?xml version="1.0" encoding="UTF-8"?><svg xmlns="http://www.w3.org/2000/svg" xmlns:xlink="http://www.w3.org/1999/xlink" height="868.3" preserveAspectRatio="xMidYMid meet" version="1.0" viewBox="-135.1 1.7 569.1 868.3" width="569.1" zoomAndPan="magnify"><g><g><g id="change1_1"><path d="M2999.091,184.577 C3154.519,193.653 3164.982,342.494 3147.955,408.459 C3052.438,778.493 3081.979,834.112 3084.973,843.562 C3124.414,968.047 3163.803,941.599 3258.739,941.599 C3231.082,969.256 3024.559,1050.061 2920.745,857.985 C2902.43,824.099 2692.773,215.209 2992.284,185.711" fill="#FFF" transform="translate(-2827.879 -180.077)"/></g><g id="change2_3"><path d="M2997.327,187.341 L2999.141,187.453 L3002.713,187.716 L3006.227,188.028 L3009.689,188.389 L3013.099,188.799 L3016.459,189.256 L3019.767,189.761 L3023.024,190.313 L3026.232,190.911 L3029.389,191.555 L3032.497,192.243 L3035.555,192.975 L3038.564,193.751 L3041.525,194.57 L3044.438,195.431 L3047.303,196.334 L3050.12,197.278 L3052.89,198.262 L3055.613,199.286 L3058.29,200.349 L3060.92,201.451 L3063.505,202.59 L3066.044,203.767 L3068.537,204.98 L3070.986,206.23 L3073.39,207.514 L3075.751,208.834 L3078.067,210.187 L3080.34,211.574 L3082.57,212.994 L3084.756,214.446 L3086.901,215.93 L3089.002,217.444 L3091.062,218.989 L3093.081,220.563 L3095.059,222.167 L3096.995,223.799 L3098.892,225.458 L3100.748,227.145 L3102.564,228.859 L3104.34,230.598 L3106.078,232.362 L3107.776,234.151 L3109.436,235.964 L3111.058,237.801 L3112.642,239.66 L3114.188,241.541 L3115.698,243.444 L3117.17,245.368 L3118.606,247.312 L3120.006,249.275 L3121.369,251.257 L3122.698,253.258 L3123.991,255.276 L3125.249,257.311 L3126.472,259.363 L3127.662,261.43 L3128.818,263.513 L3129.94,265.61 L3131.029,267.721 L3132.084,269.845 L3133.108,271.981 L3134.099,274.13 L3135.059,276.29 L3135.986,278.461 L3136.883,280.642 L3137.749,282.832 L3138.584,285.031 L3139.389,287.238 L3140.164,289.452 L3141.272,292.791 L3142.648,297.26 L3143.91,301.745 L3145.06,306.244 L3146.102,310.75 L3147.039,315.261 L3147.873,319.769 L3148.606,324.27 L3149.242,328.759 L3149.784,333.231 L3150.233,337.681 L3150.593,342.103 L3150.866,346.493 L3151.054,350.845 L3151.162,355.153 L3151.191,359.414 L3151.143,363.622 L3151.023,367.771 L3150.832,371.856 L3150.573,375.873 L3150.249,379.815 L3149.862,383.678 L3149.416,387.457 L3148.913,391.144 L3148.501,393.843 L3148.211,395.609 L3147.907,397.355 L3147.591,399.074 L3147.263,400.766 L3146.923,402.431 L3146.573,404.067 L3146.211,405.675 L3145.839,407.252 L3145.458,408.799 L3145.265,409.553 L3145.266,409.547 L3144.708,411.711 L3143.6,416.02 L3142.503,420.301 L3141.417,424.554 L3140.342,428.779 L3139.279,432.975 L3138.227,437.143 L3137.186,441.283 L3136.156,445.394 L3135.136,449.478 L3134.128,453.534 L3133.131,457.562 L3132.144,461.563 L3131.168,465.536 L3130.204,469.481 L3129.249,473.399 L3128.305,477.29 L3127.372,481.154 L3125.992,486.897 L3124.189,494.462 L3122.426,501.92 L3120.705,509.271 L3119.023,516.518 L3117.382,523.66 L3115.78,530.698 L3114.218,537.632 L3112.693,544.464 L3111.208,551.194 L3109.759,557.824 L3108.348,564.353 L3106.975,570.783 L3105.637,577.115 L3104.336,583.348 L3103.07,589.485 L3101.84,595.525 L3100.644,601.47 L3099.482,607.32 L3098.354,613.076 L3097.26,618.739 L3096.199,624.309 L3095.17,629.788 L3094.174,635.176 L3093.209,640.474 L3092.275,645.682 L3091.373,650.802 L3090.5,655.834 L3089.658,660.779 L3088.845,665.637 L3088.062,670.41 L3087.307,675.099 L3086.58,679.703 L3085.881,684.224 L3085.209,688.663 L3084.565,693.02 L3083.947,697.296 L3083.355,701.492 L3082.788,705.609 L3082.247,709.647 L3081.731,713.607 L3081.239,717.49 L3080.771,721.297 L3080.326,725.028 L3079.905,728.684 L3079.505,732.267 L3079.129,735.776 L3078.773,739.213 L3078.44,742.578 L3078.127,745.872 L3077.834,749.096 L3077.562,752.251 L3077.309,755.336 L3077.076,758.355 L3076.861,761.306 L3076.664,764.19 L3076.485,767.01 L3076.324,769.764 L3076.18,772.454 L3076.052,775.081 L3075.94,777.646 L3075.844,780.149 L3075.764,782.591 L3075.698,784.973 L3075.646,787.295 L3075.609,789.559 L3075.585,791.765 L3075.574,793.914 L3075.576,796.006 L3075.59,798.043 L3075.616,800.025 L3075.653,801.953 L3075.702,803.828 L3075.76,805.65 L3075.829,807.42 L3075.908,809.14 L3075.995,810.809 L3076.092,812.429 L3076.197,814 L3076.31,815.523 L3076.43,816.999 L3076.557,818.429 L3076.691,819.813 L3076.832,821.152 L3076.978,822.447 L3077.129,823.698 L3077.285,824.908 L3077.446,826.075 L3077.611,827.201 L3077.779,828.287 L3077.951,829.333 L3078.125,830.34 L3078.302,831.31 L3078.569,832.691 L3078.93,834.408 L3079.293,835.99 L3079.654,837.439 L3080.01,838.761 L3080.355,839.962 L3080.688,841.048 L3081.005,842.024 L3081.301,842.897 L3081.573,843.671 L3081.816,844.351 L3082.027,844.941 L3082.2,845.443 L3082.269,845.655 L3082.267,845.649 L3082.729,847.1 L3083.655,849.967 L3084.582,852.781 L3085.509,855.542 L3086.437,858.249 L3087.365,860.903 L3088.295,863.505 L3089.225,866.055 L3090.157,868.554 L3091.091,871.002 L3092.026,873.4 L3092.963,875.748 L3093.902,878.047 L3094.843,880.297 L3095.786,882.498 L3096.731,884.653 L3097.68,886.759 L3098.631,888.82 L3099.585,890.833 L3100.542,892.802 L3101.502,894.725 L3102.466,896.603 L3103.434,898.437 L3104.405,900.228 L3105.381,901.975 L3106.36,903.68 L3107.344,905.342 L3108.332,906.963 L3109.325,908.543 L3110.323,910.082 L3111.325,911.581 L3112.333,913.04 L3113.346,914.46 L3114.365,915.841 L3115.389,917.185 L3116.42,918.49 L3117.456,919.759 L3118.498,920.99 L3119.547,922.186 L3120.602,923.345 L3121.664,924.47 L3122.733,925.56 L3123.809,926.616 L3124.892,927.638 L3125.982,928.626 L3127.08,929.582 L3128.186,930.506 L3129.299,931.398 L3130.42,932.258 L3131.549,933.088 L3132.687,933.888 L3133.833,934.657 L3135.564,935.754 L3137.905,937.118 L3140.286,938.374 L3142.704,939.523 L3145.161,940.57 L3147.658,941.517 L3150.196,942.371 L3152.775,943.133 L3155.397,943.809 L3158.062,944.403 L3160.772,944.918 L3163.528,945.358 L3166.33,945.729 L3169.18,946.034 L3172.078,946.276 L3175.026,946.462 L3178.024,946.594 L3181.074,946.677 L3184.177,946.714 L3187.334,946.711 L3190.546,946.672 L3193.815,946.6 L3197.141,946.499 L3200.526,946.375 L3203.972,946.23 L3207.479,946.069 L3211.049,945.896 L3214.684,945.716 L3218.385,945.532 L3222.152,945.348 L3225.988,945.168 L3229.894,944.997 L3233.872,944.838 L3237.922,944.695 L3242.046,944.573 L3246.246,944.476 L3250.523,944.407 L3254.879,944.371 L3257.083,944.366 L3257.544,940.319 L3257.213,940.644 L3256.624,941.193 L3255.999,941.74 L3255.295,942.324 L3254.516,942.941 L3253.664,943.587 L3252.74,944.259 L3251.747,944.953 L3250.687,945.668 L3249.562,946.4 L3248.373,947.149 L3247.122,947.912 L3245.81,948.688 L3244.438,949.475 L3243.009,950.272 L3241.523,951.078 L3239.981,951.891 L3238.384,952.71 L3236.734,953.534 L3235.031,954.361 L3233.276,955.192 L3231.471,956.024 L3229.617,956.856 L3227.714,957.688 L3225.762,958.519 L3223.765,959.347 L3221.72,960.172 L3219.632,960.992 L3217.499,961.806 L3215.323,962.614 L3213.104,963.415 L3210.844,964.207 L3208.542,964.99 L3206.202,965.762 L3203.822,966.523 L3201.404,967.272 L3198.948,968.008 L3196.457,968.729 L3193.929,969.436 L3191.366,970.126 L3188.77,970.799 L3186.14,971.455 L3183.478,972.091 L3180.784,972.708 L3178.06,973.304 L3175.306,973.878 L3172.522,974.429 L3169.711,974.957 L3166.872,975.46 L3164.006,975.938 L3161.115,976.389 L3158.198,976.813 L3155.257,977.209 L3152.293,977.575 L3149.306,977.912 L3146.298,978.217 L3143.268,978.49 L3140.219,978.731 L3137.149,978.937 L3134.062,979.109 L3130.956,979.245 L3127.834,979.344 L3124.696,979.405 L3121.542,979.428 L3118.374,979.412 L3115.191,979.355 L3111.997,979.257 L3108.789,979.116 L3105.571,978.932 L3102.342,978.704 L3099.103,978.431 L3095.856,978.112 L3092.6,977.746 L3089.337,977.332 L3086.068,976.869 L3082.793,976.357 L3079.513,975.794 L3076.229,975.179 L3072.942,974.511 L3069.652,973.791 L3066.361,973.015 L3063.068,972.185 L3059.776,971.298 L3056.484,970.354 L3053.194,969.351 L3049.907,968.29 L3046.622,967.168 L3043.341,965.986 L3040.065,964.741 L3036.795,963.434 L3033.531,962.063 L3030.274,960.628 L3027.026,959.126 L3023.785,957.558 L3020.555,955.923 L3017.335,954.219 L3014.126,952.446 L3010.929,950.602 L3007.745,948.687 L3004.574,946.7 L3001.418,944.64 L2998.277,942.506 L2995.153,940.297 L2992.044,938.011 L2988.954,935.649 L2985.882,933.209 L2982.829,930.691 L2979.796,928.092 L2976.784,925.413 L2973.794,922.653 L2970.826,919.81 L2967.882,916.883 L2964.961,913.872 L2962.065,910.776 L2959.195,907.594 L2956.352,904.324 L2953.536,900.966 L2950.747,897.519 L2947.988,893.982 L2945.259,890.355 L2942.56,886.635 L2939.892,882.822 L2937.256,878.916 L2934.654,874.915 L2932.085,870.818 L2929.551,866.625 L2927.052,862.334 L2924.589,857.945 L2923.373,855.717 L2923.377,855.724 L2923.268,855.519 L2923.042,855.082 L2922.8,854.594 L2922.539,854.052 L2922.261,853.458 L2921.966,852.811 L2921.654,852.113 L2921.326,851.364 L2920.982,850.565 L2920.622,849.716 L2920.247,848.818 L2919.857,847.872 L2919.451,846.877 L2919.032,845.834 L2918.598,844.744 L2918.15,843.607 L2917.689,842.424 L2917.214,841.195 L2916.726,839.92 L2916.225,838.6 L2915.711,837.236 L2915.184,835.827 L2914.646,834.374 L2914.096,832.878 L2913.534,831.339 L2912.96,829.757 L2912.376,828.133 L2911.78,826.467 L2911.174,824.76 L2910.557,823.012 L2909.931,821.224 L2909.294,819.395 L2908.648,817.527 L2907.992,815.62 L2907.328,813.673 L2906.654,811.688 L2905.972,809.666 L2905.281,807.605 L2904.583,805.508 L2903.876,803.374 L2903.162,801.203 L2902.44,798.997 L2901.711,796.755 L2900.976,794.477 L2900.233,792.166 L2899.485,789.82 L2898.73,787.439 L2897.969,785.026 L2897.203,782.58 L2896.431,780.101 L2895.264,776.321 L2893.692,771.172 L2892.102,765.901 L2890.498,760.509 L2888.881,755.001 L2887.252,749.38 L2885.615,743.649 L2883.971,737.812 L2882.322,731.872 L2880.67,725.832 L2879.017,719.695 L2877.365,713.465 L2875.716,707.145 L2874.073,700.739 L2872.436,694.249 L2870.809,687.679 L2869.192,681.032 L2867.589,674.313 L2866.001,667.523 L2864.43,660.666 L2862.878,653.746 L2861.347,646.765 L2859.84,639.728 L2858.357,632.638 L2856.902,625.497 L2855.476,618.309 L2854.081,611.078 L2852.719,603.807 L2851.392,596.498 L2850.102,589.156 L2848.852,581.784 L2847.643,574.385 L2846.477,566.961 L2845.355,559.518 L2844.282,552.057 L2843.257,544.584 L2842.284,537.099 L2841.363,529.607 L2840.498,522.112 L2839.69,514.616 L2838.941,507.124 L2838.254,499.637 L2837.629,492.16 L2837.07,484.697 L2836.578,477.249 L2836.155,469.821 L2835.803,462.416 L2835.524,455.037 L2835.32,447.689 L2835.194,440.372 L2835.146,433.093 L2835.179,425.854 L2835.296,418.657 L2835.497,411.508 L2835.786,404.408 L2836.163,397.362 L2836.505,392.118 L2836.762,388.642 L2837.042,385.177 L2837.346,381.729 L2837.674,378.296 L2838.026,374.88 L2838.402,371.482 L2838.802,368.101 L2839.228,364.737 L2839.678,361.392 L2840.153,358.066 L2840.654,354.759 L2841.181,351.472 L2841.733,348.205 L2842.312,344.958 L2842.917,341.733 L2843.548,338.529 L2844.206,335.347 L2844.891,332.188 L2845.604,329.051 L2846.344,325.938 L2847.111,322.848 L2847.907,319.782 L2848.73,316.742 L2849.582,313.726 L2850.462,310.737 L2851.371,307.774 L2852.309,304.837 L2853.275,301.928 L2854.271,299.046 L2855.296,296.192 L2856.35,293.366 L2857.435,290.57 L2858.548,287.804 L2859.692,285.068 L2860.866,282.362 L2862.07,279.687 L2863.304,277.045 L2864.569,274.434 L2865.865,271.855 L2867.19,269.31 L2868.547,266.798 L2869.934,264.32 L2871.352,261.877 L2872.801,259.468 L2874.281,257.095 L2875.792,254.757 L2877.334,252.456 L2878.908,250.19 L2880.513,247.962 L2882.15,245.77 L2883.819,243.614 L2885.519,241.497 L2887.252,239.416 L2889.018,237.373 L2890.817,235.368 L2892.65,233.399 L2894.516,231.468 L2896.417,229.575 L2898.354,227.719 L2900.326,225.901 L2902.334,224.12 L2904.38,222.376 L2906.463,220.669 L2908.584,219.001 L2910.745,217.369 L2912.946,215.776 L2915.188,214.22 L2917.47,212.703 L2919.795,211.224 L2922.161,209.784 L2924.571,208.384 L2927.025,207.023 L2929.522,205.703 L2932.064,204.423 L2934.649,203.185 L2937.281,201.989 L2939.957,200.835 L2942.679,199.725 L2945.448,198.658 L2948.261,197.636 L2951.121,196.659 L2954.027,195.727 L2956.98,194.841 L2959.979,194.002 L2963.026,193.21 L2966.119,192.467 L2969.259,191.771 L2972.447,191.124 L2975.682,190.527 L2978.965,189.98 L2982.295,189.484 L2985.674,189.038 L2989.1,188.644 L2990.823,188.468 L2990.823,188.468 C2992.12,188.335 2993.826,186.993 2994.634,185.471 C2995.441,183.949 2995.043,182.822 2993.746,182.955 C2993.746,182.955 2993.746,182.955 2993.746,182.955 L2991.97,183.137 L2988.469,183.54 L2985.013,183.997 L2981.601,184.506 L2978.233,185.068 L2974.908,185.683 L2971.627,186.349 L2968.388,187.067 L2965.191,187.837 L2962.036,188.658 L2958.923,189.53 L2955.851,190.452 L2952.82,191.426 L2949.83,192.449 L2946.88,193.522 L2943.971,194.645 L2941.1,195.818 L2938.269,197.04 L2935.478,198.311 L2932.725,199.631 L2930.011,200.999 L2927.336,202.416 L2924.699,203.881 L2922.101,205.393 L2919.542,206.953 L2917.02,208.56 L2914.538,210.213 L2912.094,211.913 L2909.689,213.657 L2907.323,215.446 L2904.996,217.28 L2902.709,219.157 L2900.462,221.077 L2898.254,223.038 L2896.087,225.041 L2893.959,227.084 L2891.872,229.166 L2889.826,231.287 L2887.82,233.445 L2885.854,235.64 L2883.928,237.871 L2882.043,240.138 L2880.198,242.439 L2878.392,244.774 L2876.626,247.142 L2874.9,249.542 L2873.212,251.975 L2871.563,254.439 L2869.952,256.934 L2868.379,259.459 L2866.844,262.014 L2865.345,264.599 L2863.883,267.212 L2862.457,269.855 L2861.067,272.526 L2859.713,275.225 L2858.393,277.952 L2857.107,280.706 L2855.856,283.487 L2854.639,286.295 L2853.455,289.129 L2852.304,291.989 L2851.186,294.875 L2850.1,297.786 L2849.046,300.722 L2848.023,303.683 L2847.032,306.669 L2846.072,309.678 L2845.142,312.711 L2844.242,315.768 L2843.373,318.847 L2842.533,321.949 L2841.723,325.073 L2840.941,328.22 L2840.189,331.387 L2839.465,334.577 L2838.769,337.786 L2838.101,341.018 L2837.46,344.268 L2836.847,347.538 L2836.261,350.828 L2835.701,354.137 L2835.169,357.465 L2834.662,360.81 L2834.181,364.174 L2833.727,367.555 L2833.297,370.953 L2832.893,374.369 L2832.513,377.8 L2832.158,381.247 L2831.828,384.71 L2831.521,388.189 L2831.239,391.682 L2830.979,395.192 L2830.635,400.482 L2830.255,407.578 L2829.965,414.725 L2829.762,421.919 L2829.646,429.157 L2829.612,436.436 L2829.66,443.753 L2829.788,451.104 L2829.992,458.486 L2830.272,465.897 L2830.626,473.332 L2831.051,480.789 L2831.545,488.264 L2832.106,495.754 L2832.733,503.256 L2833.423,510.767 L2834.174,518.283 L2834.985,525.8 L2835.852,533.317 L2836.775,540.828 L2837.751,548.332 L2838.779,555.825 L2839.855,563.304 L2840.979,570.764 L2842.147,578.204 L2843.359,585.62 L2844.613,593.008 L2845.905,600.365 L2847.234,607.687 L2848.599,614.973 L2849.996,622.218 L2851.425,629.419 L2852.883,636.572 L2854.368,643.675 L2855.879,650.725 L2857.412,657.716 L2858.967,664.648 L2860.54,671.516 L2862.131,678.316 L2863.736,685.047 L2865.355,691.703 L2866.985,698.283 L2868.624,704.783 L2870.27,711.198 L2871.921,717.528 L2873.576,723.767 L2875.231,729.912 L2876.885,735.961 L2878.537,741.91 L2880.183,747.756 L2881.823,753.495 L2883.453,759.124 L2885.073,764.64 L2886.68,770.039 L2888.272,775.318 L2889.846,780.475 L2891.015,784.259 L2891.788,786.742 L2892.555,789.192 L2893.317,791.609 L2894.073,793.993 L2894.823,796.343 L2895.567,798.659 L2896.303,800.94 L2897.033,803.185 L2897.756,805.396 L2898.472,807.57 L2899.18,809.709 L2899.88,811.81 L2900.572,813.874 L2901.256,815.901 L2901.931,817.89 L2902.597,819.84 L2903.254,821.752 L2903.901,823.624 L2904.539,825.457 L2905.167,827.25 L2905.786,829.002 L2906.393,830.713 L2906.99,832.383 L2907.577,834.012 L2908.152,835.599 L2908.715,837.143 L2909.268,838.644 L2909.808,840.102 L2910.336,841.516 L2910.852,842.886 L2911.355,844.212 L2911.846,845.492 L2912.323,846.728 L2912.788,847.918 L2913.238,849.062 L2913.675,850.159 L2914.098,851.21 L2914.506,852.213 L2914.9,853.169 L2915.28,854.076 L2915.644,854.936 L2915.993,855.747 L2916.328,856.509 L2916.646,857.222 L2916.949,857.885 L2917.236,858.5 L2917.508,859.064 L2917.764,859.579 L2918.002,860.041 L2918.112,860.246 L2918.112,860.246 C2918.113,860.249 2918.115,860.251 2918.116,860.253 L2918.116,860.253 L2919.343,862.502 L2921.821,866.918 L2924.335,871.234 L2926.885,875.454 L2929.471,879.576 L2932.09,883.603 L2934.743,887.535 L2937.429,891.372 L2940.146,895.117 L2942.895,898.77 L2945.674,902.331 L2948.482,905.802 L2951.319,909.184 L2954.183,912.477 L2957.074,915.683 L2959.992,918.803 L2962.935,921.836 L2965.903,924.785 L2968.894,927.651 L2971.908,930.433 L2974.945,933.134 L2978.003,935.753 L2981.082,938.292 L2984.18,940.753 L2987.297,943.135 L2990.432,945.44 L2993.585,947.668 L2996.754,949.821 L2999.939,951.9 L3003.139,953.905 L3006.352,955.837 L3009.579,957.698 L3012.819,959.488 L3016.07,961.208 L3019.333,962.859 L3022.605,964.442 L3025.886,965.958 L3029.176,967.408 L3032.474,968.793 L3035.779,970.113 L3039.089,971.37 L3042.404,972.565 L3045.724,973.698 L3049.048,974.771 L3052.375,975.784 L3055.703,976.739 L3059.033,977.635 L3062.363,978.475 L3065.692,979.259 L3069.021,979.988 L3072.347,980.663 L3075.671,981.285 L3078.99,981.855 L3082.305,982.373 L3085.615,982.842 L3088.919,983.26 L3092.216,983.631 L3095.506,983.954 L3098.786,984.23 L3102.058,984.461 L3105.319,984.647 L3108.569,984.789 L3111.808,984.888 L3115.034,984.946 L3118.247,984.962 L3121.445,984.939 L3124.628,984.876 L3127.796,984.775 L3130.948,984.637 L3134.082,984.463 L3137.197,984.253 L3140.294,984.008 L3143.37,983.731 L3146.427,983.42 L3149.461,983.078 L3152.474,982.706 L3155.464,982.303 L3158.429,981.871 L3161.37,981.412 L3164.286,980.926 L3167.175,980.413 L3170.038,979.876 L3172.872,979.314 L3175.679,978.729 L3178.455,978.121 L3181.201,977.492 L3183.917,976.843 L3186.601,976.174 L3189.252,975.486 L3191.869,974.781 L3194.453,974.058 L3197.002,973.32 L3199.515,972.567 L3201.992,971.8 L3204.431,971.019 L3206.833,970.226 L3209.195,969.422 L3211.518,968.608 L3213.801,967.784 L3216.042,966.951 L3218.243,966.111 L3220.4,965.263 L3222.514,964.41 L3224.584,963.552 L3226.609,962.689 L3228.589,961.823 L3230.524,960.954 L3232.411,960.084 L3234.251,959.212 L3236.042,958.341 L3237.785,957.47 L3239.479,956.6 L3241.124,955.733 L3242.718,954.868 L3244.261,954.007 L3245.753,953.149 L3247.193,952.296 L3248.582,951.447 L3249.919,950.604 L3251.204,949.765 L3252.437,948.932 L3253.618,948.103 L3254.748,947.278 L3255.826,946.456 L3256.854,945.636 L3257.833,944.816 L3258.763,943.992 L3259.6,943.206 L3259.934,942.879 L3259.934,942.879 C3260.337,942.482 3260.688,942.042 3260.955,941.594 C3261.87,940.066 3261.62,938.829 3260.396,938.832 L3260.396,938.832 L3258.17,938.837 L3253.786,938.873 L3249.483,938.943 L3245.26,939.041 L3241.114,939.164 L3237.046,939.307 L3233.054,939.466 L3229.136,939.638 L3225.292,939.818 L3221.521,940.002 L3217.821,940.187 L3214.192,940.367 L3210.631,940.539 L3207.138,940.699 L3203.713,940.843 L3200.352,940.967 L3197.056,941.067 L3193.823,941.138 L3190.652,941.177 L3187.541,941.181 L3184.489,941.144 L3181.495,941.063 L3178.557,940.934 L3175.674,940.754 L3172.845,940.517 L3170.067,940.221 L3167.339,939.862 L3164.661,939.435 L3162.03,938.936 L3159.444,938.362 L3156.902,937.708 L3154.403,936.97 L3151.945,936.146 L3149.526,935.229 L3147.144,934.216 L3144.799,933.104 L3142.489,931.887 L3140.208,930.56 L3138.518,929.489 L3137.403,928.741 L3136.296,927.964 L3135.197,927.157 L3134.105,926.319 L3133.019,925.45 L3131.941,924.55 L3130.87,923.618 L3129.805,922.653 L3128.747,921.655 L3127.695,920.623 L3126.649,919.557 L3125.609,918.456 L3124.575,917.32 L3123.547,916.148 L3122.524,914.94 L3121.507,913.695 L3120.494,912.413 L3119.488,911.093 L3118.485,909.734 L3117.488,908.336 L3116.495,906.9 L3115.507,905.423 L3114.523,903.906 L3113.544,902.348 L3112.568,900.748 L3111.597,899.106 L3110.629,897.422 L3109.665,895.695 L3108.704,893.924 L3107.747,892.11 L3106.792,890.251 L3105.841,888.346 L3104.893,886.396 L3103.947,884.4 L3103.004,882.358 L3102.063,880.268 L3101.125,878.131 L3100.189,875.946 L3099.255,873.712 L3098.322,871.429 L3097.391,869.096 L3096.462,866.713 L3095.534,864.28 L3094.607,861.796 L3093.682,859.259 L3092.757,856.671 L3091.833,854.03 L3090.91,851.336 L3089.987,848.588 L3089.064,845.786 L3088.141,842.928 L3087.678,841.475 L3087.678,841.475 C3087.678,841.473 3087.677,841.471 3087.677,841.469 L3087.677,841.469 L3087.595,841.22 L3087.414,840.695 L3087.203,840.104 L3086.964,839.436 L3086.699,838.684 L3086.413,837.841 L3086.107,836.898 L3085.786,835.85 L3085.451,834.69 L3085.107,833.411 L3084.757,832.007 L3084.404,830.471 L3084.051,828.794 L3083.789,827.442 L3083.616,826.496 L3083.446,825.512 L3083.278,824.489 L3083.113,823.426 L3082.952,822.324 L3082.794,821.18 L3082.641,819.995 L3082.492,818.766 L3082.349,817.494 L3082.211,816.179 L3082.079,814.818 L3081.953,813.411 L3081.835,811.958 L3081.724,810.457 L3081.62,808.909 L3081.525,807.312 L3081.438,805.665 L3081.361,803.968 L3081.292,802.219 L3081.234,800.419 L3081.187,798.566 L3081.15,796.66 L3081.124,794.699 L3081.11,792.683 L3081.108,790.612 L3081.119,788.484 L3081.142,786.299 L3081.179,784.056 L3081.23,781.754 L3081.296,779.392 L3081.375,776.97 L3081.471,774.487 L3081.582,771.942 L3081.708,769.334 L3081.852,766.663 L3082.012,763.928 L3082.189,761.128 L3082.385,758.262 L3082.598,755.329 L3082.83,752.33 L3083.082,749.261 L3083.352,746.125 L3083.643,742.919 L3083.954,739.642 L3084.286,736.294 L3084.639,732.875 L3085.014,729.383 L3085.411,725.818 L3085.831,722.178 L3086.274,718.463 L3086.74,714.673 L3087.23,710.806 L3087.744,706.862 L3088.283,702.84 L3088.847,698.739 L3089.437,694.559 L3090.053,690.298 L3090.695,685.957 L3091.364,681.534 L3092.061,677.027 L3092.785,672.438 L3093.538,667.764 L3094.319,663.006 L3095.129,658.161 L3095.969,653.23 L3096.839,648.212 L3097.739,643.107 L3098.67,637.913 L3099.633,632.629 L3100.626,627.254 L3101.653,621.789 L3102.711,616.232 L3103.803,610.582 L3104.928,604.839 L3106.087,599.002 L3107.28,593.07 L3108.508,587.042 L3109.771,580.918 L3111.07,574.696 L3112.405,568.378 L3113.776,561.959 L3115.185,555.442 L3116.63,548.825 L3118.113,542.106 L3119.635,535.286 L3121.195,528.363 L3122.794,521.337 L3124.433,514.206 L3126.111,506.972 L3127.831,499.631 L3129.59,492.184 L3131.392,484.628 L3132.77,478.891 L3133.702,475.033 L3134.644,471.148 L3135.597,467.236 L3136.561,463.295 L3137.535,459.328 L3138.521,455.333 L3139.517,451.31 L3140.523,447.259 L3141.541,443.18 L3142.57,439.074 L3143.61,434.939 L3144.661,430.776 L3145.723,426.585 L3146.796,422.366 L3147.881,418.118 L3148.977,413.842 L3150.084,409.536 L3150.643,407.37 L3150.643,407.37 C3150.643,407.368 3150.644,407.366 3150.645,407.364 L3150.645,407.364 L3150.848,406.564 L3151.244,404.96 L3151.629,403.326 L3152.002,401.665 L3152.364,399.977 L3152.713,398.262 L3153.051,396.521 L3153.375,394.754 L3153.687,392.964 L3153.986,391.142 L3154.408,388.37 L3154.922,384.601 L3155.376,380.746 L3155.769,376.809 L3156.099,372.795 L3156.362,368.709 L3156.555,364.557 L3156.677,360.342 L3156.725,356.071 L3156.695,351.747 L3156.585,347.377 L3156.393,342.965 L3156.116,338.516 L3155.751,334.035 L3155.295,329.527 L3154.747,324.997 L3154.102,320.451 L3153.358,315.894 L3152.513,311.329 L3151.565,306.764 L3150.509,302.202 L3149.344,297.648 L3148.067,293.109 L3146.676,288.591 L3145.556,285.22 L3144.771,282.978 L3143.956,280.745 L3143.111,278.519 L3142.234,276.302 L3141.326,274.095 L3140.387,271.898 L3139.416,269.712 L3138.412,267.537 L3137.376,265.374 L3136.307,263.223 L3135.205,261.087 L3134.068,258.964 L3132.898,256.856 L3131.694,254.763 L3130.455,252.686 L3129.181,250.625 L3127.871,248.582 L3126.526,246.557 L3125.145,244.549 L3123.727,242.561 L3122.273,240.593 L3120.782,238.645 L3119.253,236.719 L3117.687,234.814 L3116.083,232.931 L3114.44,231.071 L3112.758,229.235 L3111.037,227.422 L3109.277,225.635 L3107.477,223.873 L3105.637,222.138 L3103.757,220.429 L3101.835,218.748 L3099.873,217.095 L3097.869,215.47 L3095.824,213.876 L3093.736,212.31 L3091.606,210.776 L3089.433,209.273 L3087.216,207.802 L3084.957,206.363 L3082.653,204.958 L3080.306,203.587 L3077.914,202.25 L3075.476,200.948 L3072.994,199.682 L3070.467,198.452 L3067.893,197.26 L3065.273,196.105 L3062.607,194.989 L3059.894,193.912 L3057.133,192.874 L3054.326,191.877 L3051.469,190.92 L3048.566,190.006 L3045.613,189.133 L3042.612,188.303 L3039.562,187.517 L3036.461,186.775 L3033.312,186.078 L3030.111,185.426 L3026.861,184.821 L3023.559,184.262 L3020.207,183.75 L3016.803,183.287 L3013.347,182.872 L3009.838,182.506 L3006.278,182.191 L3002.67,181.926 L3000.854,181.813 C2999.677,181.74 2997.933,182.919 2996.959,184.445 C2995.985,185.971 2996.149,187.268 2997.327,187.341 L2997.327,187.341" transform="translate(-2827.879 -180.077)"/></g></g><g id="change2_1"><path d="M3104.198,334.828 C3098.009,319.374 3083.034,303.613 3073.421,289.193 C3033.579,229.43 2977.486,250.148 3011.867,318.909 C3017.216,329.608 3009.036,348.624 3012.928,360.299 C3031.437,415.826 3094.929,370.559 3102.075,334.828" transform="translate(-2827.879 -180.077)"/><path d="M3106.874,332.66 L3106.578,331.936 L3105.939,330.465 L3105.25,328.988 L3104.516,327.512 L3103.741,326.039 L3102.926,324.567 L3101.638,322.366 L3099.806,319.436 L3097.862,316.511 L3095.829,313.596 L3093.726,310.695 L3090.49,306.371 L3087.212,302.085 L3085.041,299.253 L3082.904,296.446 L3080.823,293.665 L3078.818,290.912 L3076.911,288.192 L3076.004,286.849 L3076.003,286.849 L3075.067,285.463 L3073.167,282.765 L3071.243,280.179 L3069.3,277.709 L3067.342,275.354 L3065.37,273.114 L3063.386,270.988 L3061.394,268.975 L3059.396,267.074 L3057.393,265.285 L3055.388,263.607 L3053.383,262.039 L3051.382,260.58 L3049.385,259.231 L3047.396,257.989 L3045.416,256.854 L3043.447,255.826 L3041.492,254.903 L3039.553,254.086 L3037.631,253.374 L3035.728,252.765 L3033.846,252.26 L3031.987,251.859 L3030.151,251.56 L3028.34,251.364 L3026.554,251.271 L3024.794,251.281 L3023.059,251.397 L3021.348,251.619 L3019.66,251.95 L3017.992,252.395 L3016.342,252.959 L3014.708,253.649 L3013.454,254.274 L3012.604,254.748 L3011.8,255.238 L3011.002,255.766 L3010.213,256.331 L3009.435,256.932 L3008.671,257.569 L3007.925,258.24 L3007.199,258.944 L3006.497,259.676 L3005.822,260.434 L3005.174,261.216 L3004.559,262.017 L3003.974,262.837 L3003.422,263.672 L3002.902,264.521 L3002.415,265.384 L3001.958,266.258 L3001.533,267.145 L3001.137,268.043 L3000.77,268.954 L3000.432,269.877 L3000.121,270.814 L2999.837,271.764 L2999.579,272.727 L2999.348,273.705 L2999.142,274.698 L2998.962,275.706 L2998.808,276.73 L2998.678,277.77 L2998.574,278.827 L2998.495,279.899 L2998.441,280.99 L2998.413,282.097 L2998.41,283.221 L2998.433,284.363 L2998.482,285.522 L2998.556,286.699 L2998.657,287.895 L2998.785,289.107 L2998.939,290.338 L2999.12,291.587 L2999.328,292.854 L2999.564,294.139 L2999.827,295.442 L3000.118,296.763 L3000.438,298.102 L3000.786,299.46 L3001.163,300.835 L3001.569,302.228 L3002.005,303.639 L3002.47,305.068 L3002.965,306.515 L3003.49,307.98 L3004.046,309.462 L3004.633,310.963 L3005.25,312.48 L3005.9,314.016 L3006.581,315.569 L3007.294,317.139 L3008.04,318.727 L3008.818,320.332 L3009.221,321.144 L3009.213,321.129 L3009.454,321.636 L3009.854,322.631 L3010.18,323.651 L3010.444,324.713 L3010.65,325.815 L3010.803,326.956 L3010.906,328.132 L3010.963,329.342 L3010.979,330.585 L3010.957,331.857 L3010.902,333.156 L3010.817,334.48 L3010.644,336.514 L3010.352,339.278 L3010.023,342.083 L3009.692,344.915 L3009.398,347.751 L3009.223,349.873 L3009.139,351.283 L3009.086,352.672 L3009.069,354.046 L3009.094,355.401 L3009.167,356.734 L3009.291,358.041 L3009.473,359.319 L3009.718,360.564 L3010.031,361.773 L3010.221,362.381 L3010.221,362.381 C3010.223,362.389 3010.226,362.397 3010.229,362.405 L3010.229,362.405 L3010.448,363.051 L3010.903,364.331 L3011.377,365.581 L3011.867,366.794 L3012.374,367.971 L3012.895,369.114 L3013.433,370.22 L3013.985,371.292 L3014.553,372.329 L3015.135,373.332 L3015.731,374.301 L3016.342,375.237 L3016.966,376.138 L3017.604,377.007 L3018.256,377.843 L3018.92,378.646 L3019.598,379.418 L3020.287,380.157 L3020.989,380.864 L3021.703,381.54 L3022.429,382.185 L3023.166,382.799 L3023.914,383.383 L3024.674,383.937 L3025.443,384.46 L3026.224,384.954 L3027.406,385.636 L3029.018,386.446 L3030.673,387.146 L3032.363,387.734 L3034.085,388.214 L3035.837,388.586 L3037.616,388.854 L3039.422,389.019 L3041.25,389.083 L3043.1,389.05 L3044.968,388.921 L3046.852,388.697 L3048.749,388.383 L3050.657,387.979 L3052.573,387.489 L3054.496,386.915 L3056.421,386.259 L3058.347,385.523 L3060.271,384.711 L3062.189,383.824 L3064.101,382.866 L3066.001,381.839 L3067.888,380.746 L3069.76,379.589 L3071.612,378.372 L3073.444,377.096 L3075.251,375.766 L3077.031,374.382 L3078.782,372.95 L3080.501,371.47 L3082.185,369.946 L3083.832,368.381 L3085.438,366.777 L3087.002,365.138 L3088.521,363.465 L3089.993,361.763 L3091.414,360.033 L3092.782,358.279 L3094.095,356.503 L3095.349,354.708 L3096.543,352.897 L3097.674,351.074 L3098.739,349.24 L3099.736,347.399 L3100.662,345.552 L3101.515,343.706 L3102.292,341.86 L3102.991,340.018 L3103.609,338.184 L3104.144,336.36 L3104.593,334.55 L3104.792,333.621 L3104.792,333.621 C3105.083,332.246 3104.103,331.672 3102.603,332.339 C3101.103,333.006 3099.651,334.661 3099.359,336.036 C3099.359,336.036 3099.359,336.036 3099.359,336.036 L3099.202,336.785 L3098.819,338.349 L3098.363,339.921 L3097.837,341.498 L3097.243,343.077 L3096.583,344.657 L3095.859,346.237 L3095.073,347.812 L3094.228,349.382 L3093.326,350.944 L3092.368,352.497 L3091.357,354.037 L3090.295,355.564 L3089.184,357.074 L3088.026,358.565 L3086.823,360.036 L3085.577,361.484 L3084.29,362.906 L3082.964,364.301 L3081.603,365.666 L3080.206,366.999 L3078.776,368.298 L3077.316,369.56 L3075.827,370.784 L3074.312,371.966 L3072.771,373.105 L3071.209,374.198 L3069.625,375.244 L3068.023,376.239 L3066.404,377.182 L3064.77,378.07 L3063.123,378.901 L3061.464,379.672 L3059.796,380.381 L3058.121,381.026 L3056.439,381.604 L3054.755,382.112 L3053.069,382.548 L3051.384,382.909 L3049.701,383.193 L3048.022,383.396 L3046.351,383.517 L3044.689,383.552 L3043.038,383.498 L3041.4,383.353 L3039.778,383.114 L3038.174,382.777 L3036.591,382.341 L3035.031,381.802 L3033.496,381.158 L3031.982,380.401 L3030.866,379.759 L3030.136,379.298 L3029.415,378.809 L3028.702,378.29 L3027.998,377.742 L3027.303,377.165 L3026.619,376.557 L3025.944,375.919 L3025.279,375.25 L3024.625,374.55 L3023.981,373.819 L3023.349,373.056 L3022.729,372.261 L3022.12,371.433 L3021.523,370.572 L3020.939,369.679 L3020.367,368.751 L3019.809,367.79 L3019.264,366.795 L3018.732,365.765 L3018.215,364.701 L3017.712,363.601 L3017.223,362.466 L3016.75,361.295 L3016.291,360.088 L3015.846,358.839 L3015.627,358.193 L3015.635,358.217 L3015.477,357.72 L3015.197,356.656 L3014.976,355.552 L3014.811,354.409 L3014.696,353.229 L3014.628,352.014 L3014.603,350.768 L3014.617,349.491 L3014.666,348.187 L3014.744,346.866 L3014.91,344.835 L3015.198,342.055 L3015.529,339.226 L3015.864,336.37 L3016.164,333.519 L3016.343,331.399 L3016.432,329.992 L3016.49,328.597 L3016.512,327.218 L3016.493,325.859 L3016.427,324.522 L3016.309,323.211 L3016.134,321.93 L3015.896,320.682 L3015.59,319.472 L3015.21,318.303 L3014.761,317.197 L3014.52,316.689 L3014.52,316.689 C3014.518,316.684 3014.515,316.679 3014.513,316.674 L3014.513,316.674 L3014.118,315.879 L3013.351,314.296 L3012.616,312.732 L3011.913,311.185 L3011.243,309.657 L3010.604,308.148 L3009.997,306.657 L3009.421,305.185 L3008.876,303.731 L3008.362,302.297 L3007.877,300.882 L3007.423,299.486 L3006.997,298.11 L3006.602,296.753 L3006.235,295.416 L3005.897,294.099 L3005.587,292.801 L3005.305,291.524 L3005.05,290.268 L3004.823,289.031 L3004.623,287.816 L3004.449,286.622 L3004.302,285.448 L3004.18,284.296 L3004.084,283.166 L3004.013,282.058 L3003.966,280.972 L3003.944,279.908 L3003.946,278.868 L3003.971,277.85 L3004.019,276.856 L3004.089,275.886 L3004.181,274.94 L3004.294,274.019 L3004.427,273.124 L3004.581,272.254 L3004.753,271.411 L3004.944,270.595 L3005.152,269.806 L3005.377,269.046 L3005.616,268.315 L3005.87,267.614 L3006.136,266.943 L3006.413,266.304 L3006.7,265.695 L3006.996,265.118 L3007.299,264.572 L3007.608,264.056 L3007.921,263.572 L3008.239,263.115 L3008.562,262.685 L3008.888,262.279 L3009.221,261.895 L3009.561,261.53 L3009.912,261.181 L3010.275,260.845 L3010.653,260.52 L3011.048,260.206 L3011.464,259.9 L3011.901,259.604 L3012.362,259.316 L3012.807,259.059 L3013.548,258.674 L3014.671,258.182 L3015.884,257.753 L3017.181,257.396 L3018.554,257.117 L3019.996,256.922 L3021.5,256.815 L3023.062,256.8 L3024.675,256.88 L3026.334,257.055 L3028.036,257.329 L3029.777,257.702 L3031.553,258.176 L3033.36,258.752 L3035.196,259.43 L3037.057,260.212 L3038.941,261.099 L3040.844,262.091 L3042.763,263.19 L3044.696,264.395 L3046.641,265.708 L3048.594,267.13 L3050.552,268.661 L3052.514,270.303 L3054.477,272.054 L3056.438,273.918 L3058.394,275.894 L3060.344,277.982 L3062.283,280.185 L3064.211,282.502 L3066.125,284.934 L3068.021,287.482 L3069.901,290.151 L3070.838,291.538 L3070.838,291.538 C3071.387,292.349 3072.988,291.958 3074.414,290.664 C3075.84,289.369 3076.552,287.661 3076.004,286.849 C3075.455,286.037 3073.854,286.428 3072.428,287.723 C3071.001,289.017 3070.29,290.725 3070.838,291.537 L3070.838,291.537 L3071.763,292.906 L3073.69,295.653 L3075.708,298.424 L3077.798,301.216 L3079.938,304.029 L3082.108,306.859 L3085.375,311.131 L3088.595,315.431 L3090.679,318.307 L3092.689,321.187 L3094.605,324.069 L3096.409,326.953 L3097.674,329.114 L3098.47,330.55 L3099.225,331.984 L3099.937,333.415 L3100.604,334.842 L3101.225,336.271 L3101.522,336.997 C3101.911,337.946 3103.424,337.745 3104.902,336.547 C3106.38,335.349 3107.263,333.609 3106.874,332.66 L3106.874,332.66" transform="translate(-2827.879 -180.077)"/></g><g id="change2_2"><path d="M2950.312,273.274 C2889.76,265.782 2853.076,338.815 2878.146,388.954 C2896.744,426.15 2959.768,397.827 2967.293,367.728 C2978.897,321.313 2951.374,331.439 2951.374,274.335" transform="translate(-2827.879 -180.077)"/><path d="M2952.162,270.518 L2951.454,270.434 L2950.021,270.285 L2948.59,270.165 L2947.167,270.074 L2945.054,269.993 L2942.264,269.984 L2939.498,270.086 L2936.765,270.3 L2934.065,270.623 L2931.399,271.052 L2928.766,271.588 L2926.167,272.227 L2923.604,272.968 L2921.075,273.811 L2918.583,274.753 L2916.128,275.794 L2913.711,276.931 L2911.333,278.163 L2908.996,279.487 L2906.703,280.903 L2904.455,282.407 L2902.257,283.996 L2900.108,285.668 L2898.014,287.418 L2895.978,289.243 L2894.001,291.138 L2892.087,293.1 L2890.237,295.124 L2888.455,297.205 L2886.741,299.34 L2885.096,301.524 L2883.522,303.755 L2882.02,306.029 L2880.589,308.342 L2879.231,310.693 L2877.944,313.078 L2876.73,315.495 L2875.589,317.942 L2874.52,320.417 L2873.525,322.917 L2872.602,325.44 L2871.754,327.985 L2870.979,330.549 L2870.278,333.13 L2869.652,335.726 L2869.102,338.336 L2868.626,340.957 L2868.228,343.586 L2867.906,346.223 L2867.662,348.864 L2867.496,351.508 L2867.409,354.153 L2867.402,356.795 L2867.475,359.435 L2867.629,362.067 L2867.865,364.692 L2868.184,367.305 L2868.587,369.906 L2869.073,372.492 L2869.645,375.061 L2870.303,377.609 L2871.047,380.137 L2871.879,382.639 L2872.8,385.115 L2873.809,387.563 L2874.909,389.979 L2875.497,391.183 L2875.497,391.183 C2875.499,391.188 2875.501,391.192 2875.504,391.197 L2875.504,391.197 L2875.724,391.63 L2876.184,392.494 L2876.665,393.341 L2877.161,394.163 L2877.673,394.962 L2878.2,395.737 L2879.016,396.851 L2880.157,398.257 L2881.358,399.577 L2882.614,400.808 L2883.922,401.949 L2885.281,403.004 L2886.687,403.973 L2888.138,404.858 L2889.632,405.66 L2891.168,406.381 L2892.741,407.021 L2894.35,407.584 L2895.994,408.069 L2897.668,408.478 L2899.372,408.813 L2901.102,409.076 L2902.857,409.267 L2904.634,409.388 L2906.431,409.441 L2908.246,409.427 L2910.076,409.347 L2911.919,409.204 L2913.773,408.997 L2915.635,408.729 L2917.503,408.402 L2919.376,408.016 L2921.251,407.572 L2923.125,407.073 L2924.997,406.52 L2926.864,405.913 L2928.724,405.254 L2930.576,404.545 L2932.417,403.787 L2934.243,402.98 L2936.056,402.127 L2937.85,401.227 L2939.625,400.283 L2941.378,399.296 L2943.108,398.266 L2944.812,397.194 L2946.487,396.082 L2948.132,394.93 L2949.744,393.74 L2951.322,392.512 L2952.862,391.248 L2954.361,389.948 L2955.818,388.614 L2957.228,387.247 L2958.588,385.848 L2959.897,384.42 L2961.149,382.963 L2962.341,381.481 L2963.47,379.977 L2964.531,378.451 L2965.52,376.909 L2966.433,375.353 L2967.268,373.786 L2968.02,372.213 L2968.687,370.636 L2969.266,369.059 L2969.756,367.483 L2969.976,366.658 L2969.976,366.658 C2969.981,366.641 2969.985,366.624 2969.99,366.607 L2969.99,366.607 L2970.254,365.531 L2970.75,363.402 L2971.192,361.34 L2971.581,359.352 L2971.917,357.436 L2972.202,355.589 L2972.437,353.808 L2972.623,352.092 L2972.762,350.437 L2972.856,348.84 L2972.905,347.3 L2972.912,345.814 L2972.877,344.378 L2972.803,342.991 L2972.691,341.65 L2972.542,340.352 L2972.359,339.095 L2972.142,337.876 L2971.894,336.693 L2971.616,335.542 L2971.31,334.422 L2970.978,333.328 L2970.62,332.26 L2970.24,331.213 L2969.633,329.683 L2968.758,327.688 L2967.819,325.723 L2966.832,323.771 L2965.809,321.808 L2964.762,319.81 L2963.704,317.756 L2962.646,315.621 L2961.861,313.956 L2961.345,312.81 L2960.833,311.629 L2960.33,310.411 L2959.835,309.154 L2959.352,307.855 L2958.88,306.512 L2958.422,305.12 L2957.979,303.678 L2957.553,302.182 L2957.145,300.63 L2956.755,299.017 L2956.387,297.344 L2956.042,295.604 L2955.719,293.796 L2955.423,291.917 L2955.153,289.964 L2954.912,287.934 L2954.7,285.824 L2954.521,283.632 L2954.374,281.353 L2954.261,278.986 L2954.185,276.528 L2954.146,273.975 L2954.141,272.669 L2954.141,272.669 C2954.136,271.449 2952.894,271.206 2951.365,272.127 C2949.837,273.047 2948.602,274.782 2948.607,276.002 C2948.607,276.002 2948.607,276.002 2948.607,276.002 L2948.612,277.348 L2948.652,279.955 L2948.731,282.467 L2948.846,284.889 L2948.997,287.221 L2949.182,289.468 L2949.399,291.632 L2949.648,293.716 L2949.925,295.722 L2950.231,297.654 L2950.562,299.514 L2950.919,301.304 L2951.299,303.028 L2951.7,304.688 L2952.121,306.287 L2952.561,307.828 L2953.017,309.313 L2953.489,310.746 L2953.975,312.128 L2954.472,313.464 L2954.98,314.754 L2955.497,316.003 L2956.021,317.213 L2956.552,318.39 L2957.354,320.09 L2958.426,322.252 L2959.49,324.319 L2960.534,326.312 L2961.547,328.254 L2962.514,330.166 L2963.426,332.072 L2964.273,333.998 L2964.857,335.47 L2965.219,336.463 L2965.557,337.473 L2965.871,338.502 L2966.159,339.554 L2966.421,340.63 L2966.654,341.734 L2966.857,342.87 L2967.029,344.039 L2967.168,345.246 L2967.274,346.492 L2967.344,347.783 L2967.378,349.119 L2967.373,350.505 L2967.328,351.943 L2967.242,353.437 L2967.113,354.989 L2966.938,356.604 L2966.718,358.283 L2966.45,360.03 L2966.132,361.848 L2965.763,363.741 L2965.341,365.71 L2964.862,367.77 L2964.597,368.849 L2964.61,368.797 L2964.458,369.383 L2964.081,370.622 L2963.639,371.851 L2963.134,373.066 L2962.567,374.271 L2961.94,375.463 L2961.256,376.645 L2960.513,377.817 L2959.714,378.978 L2958.859,380.13 L2957.949,381.272 L2956.984,382.403 L2955.966,383.524 L2954.894,384.633 L2953.771,385.729 L2952.598,386.809 L2951.376,387.875 L2950.107,388.922 L2948.794,389.949 L2947.437,390.955 L2946.04,391.938 L2944.604,392.895 L2943.132,393.824 L2941.626,394.724 L2940.09,395.593 L2938.524,396.429 L2936.932,397.23 L2935.316,397.993 L2933.678,398.719 L2932.022,399.404 L2930.348,400.048 L2928.661,400.647 L2926.962,401.202 L2925.253,401.71 L2923.538,402.169 L2921.818,402.578 L2920.096,402.935 L2918.375,403.239 L2916.655,403.488 L2914.941,403.682 L2913.234,403.817 L2911.537,403.893 L2909.852,403.909 L2908.181,403.862 L2906.526,403.751 L2904.891,403.576 L2903.276,403.333 L2901.685,403.023 L2900.119,402.642 L2898.581,402.191 L2897.073,401.667 L2895.598,401.07 L2894.157,400.396 L2892.753,399.646 L2891.388,398.817 L2890.065,397.908 L2888.785,396.918 L2887.551,395.845 L2886.365,394.687 L2885.229,393.443 L2884.142,392.106 L2883.362,391.044 L2882.862,390.311 L2882.377,389.555 L2881.906,388.776 L2881.451,387.974 L2881.007,387.143 L2880.787,386.71 L2880.794,386.724 L2880.23,385.569 L2879.159,383.221 L2878.177,380.843 L2877.282,378.439 L2876.473,376.011 L2875.75,373.562 L2875.112,371.093 L2874.557,368.608 L2874.086,366.109 L2873.696,363.597 L2873.387,361.076 L2873.158,358.549 L2873.008,356.017 L2872.936,353.485 L2872.941,350.952 L2873.023,348.423 L2873.179,345.899 L2873.41,343.384 L2873.713,340.88 L2874.089,338.389 L2874.535,335.915 L2875.051,333.46 L2875.635,331.025 L2876.287,328.616 L2877.004,326.234 L2877.786,323.88 L2878.631,321.56 L2879.538,319.274 L2880.505,317.026 L2881.53,314.818 L2882.613,312.653 L2883.751,310.534 L2884.944,308.462 L2886.189,306.439 L2887.485,304.468 L2888.831,302.551 L2890.225,300.688 L2891.668,298.882 L2893.158,297.132 L2894.695,295.44 L2896.28,293.806 L2897.912,292.23 L2899.594,290.713 L2901.326,289.256 L2903.109,287.858 L2904.946,286.522 L2906.835,285.25 L2908.779,284.041 L2910.779,282.9 L2912.833,281.828 L2914.944,280.829 L2917.11,279.905 L2919.331,279.059 L2921.604,278.296 L2923.932,277.618 L2926.311,277.028 L2928.739,276.53 L2931.217,276.127 L2933.743,275.822 L2936.316,275.618 L2938.933,275.518 L2941.602,275.524 L2943.633,275.602 L2944.994,275.688 L2946.366,275.802 L2947.754,275.946 L2948.463,276.03 C2949.6,276.165 2951.35,275.041 2952.371,273.518 C2953.392,271.996 2953.299,270.653 2952.162,270.518 L2952.162,270.518" transform="translate(-2827.879 -180.077)"/></g><g id="change2_4"><path d="M2961.42,426.167 C3067.176,340.296 3050.482,585.439 3042.771,597.005 C2998.864,662.865 2948.765,656.663 2946.957,554.522 C2946.64,536.621 2946.467,452.148 2960.747,428.097" transform="translate(-2827.879 -180.077)"/><path d="M2962.115,427.892 L2962.733,427.394 L2963.92,426.45 L2965.082,425.548 L2966.231,424.675 L2967.367,423.832 L2968.491,423.019 L2969.604,422.234 L2970.704,421.478 L2971.792,420.75 L2972.868,420.051 L2973.932,419.379 L2974.985,418.736 L2976.026,418.119 L2977.056,417.529 L2978.075,416.965 L2979.082,416.428 L2980.079,415.917 L2981.065,415.432 L2982.543,414.743 L2984.47,413.916 L2986.342,413.195 L2988.174,412.57 L2989.97,412.039 L2991.731,411.6 L2993.456,411.252 L2995.149,410.993 L2996.808,410.822 L2998.436,410.738 L3000.033,410.74 L3001.599,410.826 L3003.134,410.996 L3004.638,411.248 L3006.113,411.582 L3007.556,411.997 L3008.97,412.49 L3010.354,413.062 L3011.708,413.711 L3013.032,414.435 L3014.325,415.234 L3015.589,416.105 L3016.822,417.048 L3018.026,418.062 L3019.2,419.144 L3020.344,420.293 L3021.459,421.507 L3022.544,422.787 L3023.601,424.128 L3024.628,425.531 L3025.626,426.993 L3026.597,428.513 L3027.538,430.089 L3028.452,431.72 L3029.338,433.405 L3030.197,435.14 L3031.028,436.926 L3031.832,438.76 L3032.61,440.64 L3033.362,442.566 L3034.087,444.535 L3034.787,446.545 L3035.462,448.596 L3036.111,450.685 L3036.736,452.811 L3037.337,454.973 L3037.914,457.168 L3038.467,459.395 L3038.997,461.652 L3039.503,463.939 L3039.988,466.252 L3040.45,468.59 L3040.89,470.953 L3041.309,473.338 L3041.706,475.743 L3042.264,479.389 L3042.937,484.307 L3043.532,489.274 L3044.051,494.281 L3044.499,499.315 L3044.877,504.363 L3045.189,509.412 L3045.438,514.45 L3045.626,519.462 L3045.757,524.437 L3045.834,529.36 L3045.859,534.22 L3045.836,539.002 L3045.768,543.694 L3045.689,547.145 L3045.624,549.409 L3045.549,551.646 L3045.465,553.851 L3045.372,556.024 L3045.27,558.162 L3045.16,560.263 L3045.043,562.326 L3044.918,564.349 L3044.786,566.332 L3044.648,568.271 L3044.503,570.166 L3044.352,572.014 L3044.196,573.814 L3044.035,575.565 L3043.869,577.265 L3043.699,578.911 L3043.525,580.503 L3043.348,582.039 L3043.167,583.516 L3042.984,584.933 L3042.799,586.289 L3042.611,587.581 L3042.423,588.807 L3042.233,589.966 L3042.043,591.055 L3041.854,592.071 L3041.665,593.013 L3041.478,593.877 L3041.294,594.66 L3041.115,595.356 L3040.943,595.961 L3040.781,596.464 L3040.638,596.85 L3040.529,597.094 L3040.488,597.145 L3040.602,596.933 L3040.717,596.753 L3039.688,598.283 L3037.667,601.197 L3035.661,603.976 L3033.655,606.645 L3031.65,609.202 L3029.65,611.645 L3027.654,613.976 L3025.667,616.192 L3023.688,618.295 L3021.72,620.285 L3019.764,622.16 L3017.822,623.922 L3015.894,625.571 L3013.982,627.109 L3012.085,628.535 L3010.204,629.851 L3008.339,631.059 L3006.489,632.159 L3004.653,633.153 L3002.831,634.041 L3001.022,634.824 L2999.224,635.502 L2997.439,636.075 L2995.665,636.542 L2993.902,636.901 L2992.151,637.153 L2990.413,637.296 L2988.688,637.327 L2986.979,637.246 L2985.287,637.05 L2983.613,636.739 L2982.381,636.431 L2981.569,636.19 L2980.752,635.917 L2979.941,635.613 L2979.136,635.28 L2978.338,634.916 L2977.546,634.522 L2976.761,634.097 L2975.983,633.642 L2975.212,633.156 L2974.449,632.639 L2973.694,632.091 L2972.946,631.511 L2972.207,630.901 L2971.476,630.259 L2970.754,629.585 L2970.041,628.88 L2969.336,628.144 L2968.641,627.375 L2967.955,626.575 L2967.279,625.743 L2966.613,624.878 L2965.957,623.982 L2965.311,623.053 L2964.675,622.092 L2964.05,621.099 L2963.436,620.073 L2962.832,619.015 L2962.24,617.924 L2961.659,616.801 L2961.09,615.645 L2960.532,614.456 L2959.986,613.234 L2959.453,611.979 L2958.931,610.691 L2958.422,609.37 L2957.926,608.016 L2957.442,606.628 L2956.971,605.208 L2956.513,603.754 L2956.068,602.266 L2955.637,600.745 L2955.22,599.191 L2954.816,597.602 L2954.426,595.98 L2954.05,594.324 L2953.689,592.635 L2953.342,590.911 L2953.009,589.154 L2952.691,587.362 L2952.389,585.537 L2952.101,583.677 L2951.828,581.782 L2951.571,579.854 L2951.33,577.891 L2951.104,575.894 L2950.894,573.862 L2950.7,571.795 L2950.523,569.695 L2950.361,567.559 L2950.217,565.388 L2950.089,563.183 L2949.978,560.942 L2949.884,558.667 L2949.806,556.356 L2949.747,554.01 L2949.724,552.828 L2949.724,552.831 L2949.717,552.401 L2949.702,551.468 L2949.688,550.444 L2949.676,549.329 L2949.664,548.126 L2949.655,546.839 L2949.647,545.471 L2949.642,544.024 L2949.639,542.502 L2949.639,540.906 L2949.643,539.241 L2949.65,537.508 L2949.661,535.712 L2949.677,533.855 L2949.697,531.939 L2949.722,529.969 L2949.753,527.946 L2949.789,525.873 L2949.831,523.754 L2949.879,521.592 L2949.934,519.388 L2949.995,517.147 L2950.064,514.872 L2950.141,512.564 L2950.27,509.047 L2950.473,504.275 L2950.711,499.428 L2950.988,494.53 L2951.306,489.604 L2951.668,484.673 L2952.077,479.761 L2952.534,474.893 L2953.043,470.09 L2953.459,466.55 L2953.754,464.225 L2954.063,461.926 L2954.387,459.66 L2954.725,457.431 L2955.078,455.241 L2955.447,453.094 L2955.831,450.993 L2956.23,448.94 L2956.646,446.94 L2957.077,444.996 L2957.524,443.11 L2957.987,441.288 L2958.466,439.532 L2958.96,437.847 L2959.47,436.236 L2959.993,434.705 L2960.53,433.259 L2961.078,431.903 L2961.635,430.643 L2962.196,429.488 L2962.757,428.445 L2963.006,428.021 L2963.006,428.021 C2963.888,426.494 2963.593,425.289 2962.345,425.332 C2961.098,425.374 2959.371,426.646 2958.489,428.174 L2958.073,428.899 L2957.337,430.285 L2956.643,431.726 L2955.985,433.226 L2955.358,434.786 L2954.76,436.407 L2954.187,438.088 L2953.638,439.828 L2953.111,441.628 L2952.606,443.484 L2952.121,445.396 L2951.656,447.36 L2951.209,449.376 L2950.781,451.441 L2950.37,453.551 L2949.977,455.706 L2949.6,457.901 L2949.24,460.135 L2948.896,462.405 L2948.567,464.708 L2948.253,467.041 L2947.953,469.406 L2947.531,472.997 L2947.018,477.85 L2946.556,482.764 L2946.145,487.715 L2945.78,492.681 L2945.46,497.639 L2945.182,502.566 L2944.942,507.438 L2944.739,512.232 L2944.609,515.762 L2944.532,518.081 L2944.463,520.367 L2944.401,522.618 L2944.346,524.83 L2944.297,527.002 L2944.255,529.13 L2944.219,531.211 L2944.189,533.243 L2944.163,535.222 L2944.143,537.144 L2944.127,539.009 L2944.116,540.813 L2944.109,542.552 L2944.105,544.225 L2944.105,545.827 L2944.108,547.356 L2944.113,548.81 L2944.121,550.186 L2944.13,551.479 L2944.142,552.688 L2944.155,553.81 L2944.168,554.842 L2944.183,555.78 L2944.19,556.212 L2944.19,556.212 C2944.19,556.213 2944.19,556.214 2944.19,556.216 L2944.19,556.216 L2944.214,557.418 L2944.274,559.79 L2944.352,562.127 L2944.448,564.43 L2944.56,566.697 L2944.69,568.93 L2944.836,571.128 L2945,573.291 L2945.18,575.42 L2945.377,577.515 L2945.59,579.575 L2945.819,581.601 L2946.064,583.593 L2946.325,585.55 L2946.602,587.473 L2946.894,589.363 L2947.202,591.218 L2947.525,593.039 L2947.864,594.828 L2948.217,596.581 L2948.585,598.302 L2948.969,599.988 L2949.366,601.641 L2949.778,603.26 L2950.204,604.847 L2950.645,606.4 L2951.099,607.919 L2951.567,609.406 L2952.049,610.859 L2952.545,612.279 L2953.054,613.666 L2953.576,615.02 L2954.111,616.342 L2954.66,617.63 L2955.221,618.886 L2955.795,620.109 L2956.382,621.3 L2956.981,622.458 L2957.593,623.583 L2958.216,624.677 L2958.852,625.737 L2959.5,626.766 L2960.159,627.762 L2960.831,628.726 L2961.514,629.658 L2962.208,630.558 L2962.914,631.426 L2963.631,632.261 L2964.359,633.065 L2965.098,633.837 L2965.848,634.578 L2966.61,635.286 L2967.381,635.963 L2968.163,636.608 L2968.956,637.221 L2969.759,637.803 L2970.573,638.353 L2971.396,638.871 L2972.23,639.358 L2973.074,639.813 L2973.928,640.237 L2974.792,640.629 L2975.666,640.989 L2976.549,641.318 L2977.442,641.615 L2978.355,641.884 L2979.739,642.224 L2981.603,642.564 L2983.504,642.776 L2985.441,642.86 L2987.414,642.816 L2989.421,642.642 L2991.46,642.34 L2993.53,641.907 L2995.63,641.344 L2997.756,640.652 L2999.906,639.83 L3002.076,638.88 L3004.265,637.802 L3006.468,636.599 L3008.682,635.271 L3010.904,633.823 L3013.131,632.255 L3015.36,630.569 L3017.589,628.769 L3019.815,626.856 L3022.038,624.832 L3024.255,622.699 L3026.465,620.459 L3028.668,618.111 L3030.863,615.658 L3033.047,613.101 L3035.222,610.439 L3037.387,607.674 L3039.54,604.807 L3041.681,601.837 L3043.793,598.788 L3044.824,597.257 L3044.824,597.257 C3044.864,597.197 3044.903,597.138 3044.94,597.078 L3044.94,597.078 L3045.235,596.573 L3045.562,595.913 L3045.826,595.279 L3046.06,594.624 L3046.28,593.927 L3046.493,593.174 L3046.701,592.36 L3046.906,591.483 L3047.11,590.539 L3047.311,589.53 L3047.511,588.456 L3047.71,587.316 L3047.906,586.112 L3048.101,584.846 L3048.293,583.517 L3048.483,582.128 L3048.671,580.679 L3048.855,579.173 L3049.035,577.611 L3049.212,575.993 L3049.385,574.322 L3049.552,572.6 L3049.716,570.827 L3049.873,569.005 L3050.026,567.135 L3050.172,565.221 L3050.312,563.262 L3050.445,561.261 L3050.571,559.218 L3050.689,557.137 L3050.8,555.017 L3050.902,552.862 L3050.996,550.672 L3051.081,548.449 L3051.156,546.194 L3051.222,543.908 L3051.302,540.427 L3051.37,535.699 L3051.393,530.881 L3051.367,525.986 L3051.29,521.026 L3051.157,516.014 L3050.967,510.963 L3050.717,505.886 L3050.402,500.796 L3050.02,495.705 L3049.569,490.626 L3049.044,485.573 L3048.443,480.558 L3047.764,475.597 L3047.201,471.919 L3046.799,469.487 L3046.375,467.075 L3045.929,464.684 L3045.462,462.317 L3044.971,459.974 L3044.457,457.658 L3043.92,455.37 L3043.359,453.111 L3042.773,450.883 L3042.163,448.688 L3041.528,446.528 L3040.867,444.403 L3040.18,442.316 L3039.467,440.268 L3038.727,438.261 L3037.959,436.297 L3037.165,434.376 L3036.341,432.5 L3035.49,430.673 L3034.609,428.894 L3033.699,427.165 L3032.759,425.488 L3031.788,423.865 L3030.787,422.297 L3029.753,420.786 L3028.689,419.334 L3027.591,417.942 L3026.461,416.612 L3025.296,415.346 L3024.098,414.144 L3022.865,413.01 L3021.596,411.944 L3020.291,410.949 L3018.949,410.027 L3017.57,409.179 L3016.152,408.406 L3014.696,407.712 L3013.2,407.098 L3011.664,406.565 L3010.086,406.117 L3008.467,405.754 L3006.805,405.48 L3005.101,405.297 L3003.352,405.206 L3001.56,405.209 L2999.723,405.31 L2997.841,405.51 L2995.915,405.81 L2993.944,406.214 L2991.929,406.723 L2989.87,407.339 L2987.767,408.062 L2985.622,408.895 L2983.452,409.831 L2981.801,410.603 L2980.676,411.158 L2979.541,411.741 L2978.396,412.353 L2977.241,412.993 L2976.075,413.662 L2974.9,414.36 L2973.715,415.086 L2972.521,415.841 L2971.315,416.626 L2970.102,417.438 L2968.878,418.281 L2967.644,419.152 L2966.4,420.053 L2965.147,420.984 L2963.885,421.944 L2962.612,422.933 L2961.343,423.942 L2960.724,424.442 C2959.245,425.637 2958.357,427.378 2958.741,428.331 C2959.126,429.284 2960.636,429.087 2962.115,427.892 L2962.115,427.892" transform="translate(-2827.879 -180.077)"/></g></g></svg>