<?xml version="1.0" encoding="UTF-8" standalone="no"?><svg xmlns="http://www.w3.org/2000/svg" xmlns:xlink="http://www.w3.org/1999/xlink" fill="#000000" height="210.2" preserveAspectRatio="xMidYMid meet" version="1" viewBox="0.0 0.0 489.8 210.2" width="489.8" zoomAndPan="magnify"><defs><clipPath id="a"><path d="M 0 0 L 489.769531 0 L 489.769531 210.199219 L 0 210.199219 Z M 0 0"/></clipPath></defs><g><g clip-path="url(#a)" id="change1_1"><path d="M 401.554688 205.699219 L 401.355469 171.097656 L 443.554688 161.898438 L 482.054688 205.699219 Z M 331.457031 205.699219 L 341.257812 146.296875 L 370.15625 119.097656 L 396.355469 169.699219 L 396.554688 205.699219 Z M 296.257812 126 L 336.257812 146.5 L 326.457031 205.699219 L 258.257812 205.699219 Z M 144.65625 205.597656 L 174.054688 159.296875 L 219.355469 188.5 L 245.855469 205.597656 Z M 82.757812 166.398438 L 168.355469 158.796875 L 138.65625 205.699219 L 63.457031 205.699219 Z M 39.15625 137.898438 L 77.957031 164.898438 L 61.65625 198 L 57.855469 205.699219 L 6.554688 205.699219 Z M 35.757812 133.796875 Z M 170.757812 70.5 L 170.757812 147 L 120.355469 64.597656 Z M 216.054688 62.699219 C 216.648438 62.589844 217.179688 62.269531 217.554688 61.800781 L 255.957031 13.699219 L 232.957031 88.398438 L 182.355469 69.199219 Z M 238.65625 87 L 263.65625 5.699219 L 325.65625 47.300781 Z M 338.554688 142 L 298.457031 121.5 L 299.457031 119.5 L 331.054688 53.097656 L 367.757812 114.5 Z M 177.15625 155.398438 L 232.957031 97 L 234.15625 104.398438 L 250.855469 203 L 185.957031 161.097656 Z M 115.855469 66.800781 L 169.054688 153.699219 L 84.15625 161.296875 L 90.957031 120.597656 Z M 255.355469 200 L 237.957031 96.097656 L 291.855469 123.699219 L 291.554688 124.398438 Z M 173.15625 158.398438 Z M 230.15625 92.699219 L 187.457031 137.398438 L 175.65625 149.699219 L 175.65625 71.898438 L 189.554688 77.199219 Z M 240.355469 91.800781 L 325.554688 53 L 293.957031 119.199219 Z M 85.355469 123.398438 L 79.257812 159.796875 L 43.957031 135.199219 Z M 413.257812 103.300781 L 440.855469 157.398438 L 400.257812 166.199219 L 374.457031 116.398438 Z M 489.457031 206.5 L 446.65625 157.699219 L 416.757812 99 C 416.183594 97.921875 414.914062 97.410156 413.757812 97.800781 L 372.054688 111.898438 L 332.957031 46.5 L 332.757812 46.199219 L 332.457031 46.199219 L 332.257812 46 L 263.65625 0 L 261.355469 0 L 260.855469 0.199219 L 260.757812 0.199219 L 260.457031 0.5 L 260.257812 0.5 L 214.257812 58 L 173.15625 65.800781 L 115.855469 59.097656 L 114.355469 59.097656 L 114.054688 59.300781 L 113.855469 59.5 L 113.65625 59.800781 L 113.355469 59.800781 L 86.757812 117.796875 L 37.554688 131.796875 L 37.054688 132 L 36.554688 132 L 36.355469 132.199219 L 36.15625 132.199219 L 35.855469 132.597656 L 0.253906 206.597656 C -0.351562 207.839844 0.160156 209.335938 1.398438 209.945312 C 1.757812 210.121094 2.15625 210.207031 2.554688 210.199219 L 487.554688 210.199219 C 488.929688 210.042969 489.910156 208.804688 489.753906 207.429688 C 489.71875 207.105469 489.617188 206.789062 489.457031 206.5" fill="#ff914d"/></g></g></svg>