<?xml version="1.0" encoding="UTF-8"?><svg xmlns="http://www.w3.org/2000/svg" xmlns:xlink="http://www.w3.org/1999/xlink" height="1807.8" preserveAspectRatio="xMidYMid meet" version="1.0" viewBox="553.9 322.4 1344.7 1807.8" width="1344.7" zoomAndPan="magnify"><g><g id="change1_1"><path d="M 833.878906 2046.179688 C 833.878906 2092.5625 796.289062 2130.152344 749.886719 2130.152344 L 637.894531 2130.152344 C 591.53125 2130.152344 553.921875 2092.5625 553.921875 2046.179688 L 553.921875 406.328125 C 553.921875 359.933594 591.53125 322.351562 637.894531 322.351562 L 749.886719 322.351562 C 796.289062 322.351562 833.878906 359.933594 833.878906 406.328125 L 833.878906 2046.179688" fill="#f68d1f"/></g><g id="change2_1"><path d="M 1051.027344 769.382812 C 1114.726562 617.535156 1264.195312 576.140625 1399.957031 737.046875 C 1535.722656 897.886719 1614.082031 1161.875 1614.082031 1161.875 L 1222.808594 1304.523438 L 1127.675781 1131.476562 L 1020.046875 1145.117188 C 1020.046875 1145.117188 985.25 926.308594 1051.027344 769.382812" fill="#eeb671"/></g><g id="change3_1"><path d="M 1238.582031 624.53125 C 1248.019531 624.53125 1257.148438 625.019531 1266.007812 625.726562 C 1268.875 625.691406 1271.722656 625.539062 1274.683594 625.726562 C 1269.804688 593.574219 1278.167969 559.816406 1278.167969 559.816406 C 1300.171875 579.417969 1304.433594 605.09375 1302.621094 625.878906 C 1372.804688 559.710938 1384.210938 574.320312 1338.527344 640.371094 C 1345.738281 643.308594 1352.695312 646.699219 1359.53125 650.273438 C 1514.578125 723.558594 1571.546875 927.574219 1571.546875 927.574219 L 1475.339844 978.910156 C 1456.972656 943.632812 1445.023438 875.785156 1445.023438 875.785156 C 1443.386719 819.199219 1414.050781 809.582031 1400.511719 805.855469 C 1366.429688 796.507812 1276.621094 836.859375 1367.082031 923.8125 L 1296.0625 964.941406 L 1219.152344 798.109375 C 968.652344 943.820312 954.007812 903.316406 954.007812 903.316406 C 955.703125 834.328125 1011.136719 623.9375 1238.582031 624.53125" fill="#09090a"/></g><g id="change4_1"><path d="M 1091.859375 948.101562 C 1116.820312 935.429688 1147.328125 945.339844 1160.070312 970.300781 C 1172.800781 995.191406 1162.871094 1025.808594 1137.910156 1038.519531 C 1112.929688 1051.261719 1082.359375 1041.308594 1069.671875 1016.390625 C 1056.949219 991.429688 1066.878906 960.878906 1091.859375 948.101562" fill="#f1f1e9"/></g><g id="change5_1"><path d="M 1077.390625 983.828125 C 1087.371094 978.648438 1099.589844 982.628906 1104.640625 992.660156 C 1109.738281 1002.601562 1105.769531 1014.820312 1095.789062 1019.929688 C 1085.820312 1024.988281 1073.601562 1021.039062 1068.539062 1011.058594 C 1063.429688 1001.109375 1067.398438 988.859375 1077.390625 983.828125" fill="#1a1b1c"/></g><g id="change3_2"><path d="M 1093.03125 908.679688 C 1093.03125 908.679688 1047.839844 947.578125 1037.46875 976.671875 C 1037.46875 976.671875 1018.261719 904.210938 1093.03125 908.679688" fill="#09090a"/></g><g id="change6_1"><path d="M 1201 1143.320312 C 1177.578125 1146.96875 1157.558594 1154.53125 1144.800781 1162.621094 L 1154.820312 1180.871094 C 1164.140625 1173.941406 1180.210938 1166.339844 1206.160156 1162.429688 C 1221.878906 1160.078125 1225.140625 1139.589844 1201 1143.320312" fill="#9a2c37"/></g><g id="change2_2"><path d="M 868.15625 1286.53125 C 863.015625 1321.070312 946.113281 1297.890625 946.113281 1297.890625 C 946.953125 1312.871094 956.488281 1338.019531 935.625 1360.820312 C 925.4375 1371.921875 842.132812 1361.558594 835.78125 1360.710938 C 810.894531 1357.28125 812.960938 1274.460938 819.667969 1216.679688 C 828.125 1144.25 834.941406 1212.320312 834.941406 1212.320312 C 847.441406 1139.558594 850.253906 1217.199219 850.253906 1217.199219 C 860.59375 1160.078125 861.898438 1232.769531 861.898438 1232.769531 C 884.25 1183.179688 868.15625 1286.53125 868.15625 1286.53125" fill="#eeb671"/></g><g id="change7_1"><path d="M 1553.789062 2075.050781 C 1541.019531 2077.988281 1542.738281 2091.550781 1547.65625 2096.289062 C 1559.046875 2107.238281 1588.851562 2113.871094 1608.503906 2114.019531 C 1633.265625 2114.28125 1640.191406 2114.019531 1665 2113.648438 C 1743.929688 2112.449219 1761.957031 2069.160156 1761.957031 2069.160156 L 1761.785156 2114.019531 L 1851.078125 2114.429688 L 1851.304688 2069.53125 L 1851.453125 2029.488281 L 1687.082031 2028.820312 C 1683.175781 2043.828125 1595.191406 2065.621094 1553.789062 2075.050781" fill="#060707"/></g><g id="change7_2"><path d="M 1317.925781 1584.582031 L 1722.859375 1480.820312 C 1722.859375 1480.820312 1770.941406 1531.152344 1709.101562 1604.433594 L 1898.574219 2052.621094 L 1611.109375 2051.652344 L 1317.925781 1584.582031" fill="#060707"/></g><g id="change8_1"><path d="M 1464.359375 2087.050781 C 1451.546875 2089.988281 1453.257812 2103.550781 1458.183594 2108.238281 C 1469.558594 2119.269531 1499.382812 2125.871094 1519.042969 2126.019531 C 1543.808594 2126.238281 1550.714844 2126.019531 1575.566406 2125.609375 C 1654.480469 2124.449219 1672.488281 2081.121094 1672.488281 2081.121094 L 1672.335938 2126.019531 L 1761.625 2126.421875 L 1761.808594 2081.53125 L 1761.980469 2041.480469 L 1597.652344 2040.808594 C 1593.707031 2055.828125 1505.726562 2077.578125 1464.359375 2087.050781" fill="#1c191d"/></g><g id="change8_2"><path d="M 1303.601562 1600.410156 L 1674.222656 1523.246094 C 1674.222656 1523.246094 1702.089844 1560.917969 1629.8125 1633.636719 L 1809.152344 2064.660156 L 1521.640625 2063.648438 L 1303.601562 1600.410156" fill="#1c191d"/></g><g id="change4_2"><path d="M 1273.089844 1231.988281 L 1234.46875 1400.011719 C 1234.46875 1400.011719 1123.960938 1447.289062 842.804688 1375.089844 L 871.472656 1269.648438 C 871.472656 1269.648438 1017.441406 1332.839844 1273.089844 1231.988281" fill="#f1f1e9"/></g><g id="change4_3"><path d="M 1608.234375 1104.765625 L 1747.964844 1497.8125 L 1299.164062 1617.625 L 1187.789062 1252.109375 L 1608.234375 1104.765625" fill="#f1f1e9"/></g><g id="change9_1"><path d="M 1282.199219 1562.070312 L 1312.941406 1500.230469 L 1247.308594 1350.980469 L 1243.300781 1248.308594 L 1191.929688 1263.910156 L 1282.199219 1562.070312" fill="#a4263c"/></g><g id="change2_3"><path d="M 860.054688 1444.460938 C 856.515625 1479.179688 938.457031 1452.171875 938.457031 1452.171875 C 939.96875 1467.070312 950.660156 1491.769531 930.914062 1515.46875 C 921.265625 1527.089844 837.570312 1520.640625 831.179688 1520.050781 C 806.144531 1517.78125 804.335938 1434.988281 808.324219 1376.949219 C 813.355469 1304.230469 823.375 1371.878906 823.375 1371.878906 C 832.429688 1298.601562 838.910156 1376.019531 838.910156 1376.019531 C 846.527344 1318.53125 851.261719 1391 851.261719 1391 C 871.210938 1340.441406 860.054688 1444.460938 860.054688 1444.460938" fill="#eeb671"/></g><g id="change4_4"><path d="M 858.488281 1422.738281 L 852.488281 1537.191406 C 1156.828125 1548.808594 1367.871094 1440.171875 1367.871094 1440.171875 L 1261.988281 1294.949219 C 1022.230469 1455.070312 858.488281 1422.738281 858.488281 1422.738281" fill="#f1f1e9"/></g></g></svg>