<?xml version="1.0" encoding="UTF-8"?><svg xmlns="http://www.w3.org/2000/svg" xmlns:xlink="http://www.w3.org/1999/xlink" height="474.2" preserveAspectRatio="xMidYMid meet" version="1.0" viewBox="13.1 13.2 500.6 474.2" width="500.6" zoomAndPan="magnify"><g id="change1_1"><path d="M510.852,370.297c-2.754-5.486-8.056-9.058-12.11-10.573c-3.037-1.132-6.372-1.771-9.646-1.846 c-4.487-0.105-8.881,0.834-12.708,2.714c-0.987,0.485-1.89,0.99-2.749,1.51c-0.064-0.795-0.121-1.599-0.193-2.385 c-1.319-14.085-5.848-26.229-13.463-36.098c-4.565-5.911-11.667-9.407-19.482-9.585c-7.838-0.181-15.709,2.956-21.06,8.39 c-2.102,2.135-4.074,4.423-5.936,6.884c-4.472,0.236-9.077,1.589-13.07,3.79c-3.298-2.186-7.287-3.463-11.586-3.561 c-4.664-0.106-9.179,1.176-12.936,3.518c-2.255-9.452-10.731-15.862-21.612-16.113c-0.862-0.021-1.722,0.007-2.576,0.062 c5.972-3.159,10.323-8.527,11.664-15.103c3.877-16.414,10.39-23.372,11.939-23.337c0.133,0.006,0.511,0.037,1.175,0.261 c2.198,0.736,4.543,1.14,6.974,1.196l0,0c10.063,0.229,22.438-5.719,25.544-17.196c2.482-9.177-1.753-18.339-10.79-23.339 c-7.231-4-14.722-6.118-22.265-6.292c-8.56-0.197-16.873,2.093-24.558,6.699c-0.834-0.108-1.683-0.174-2.548-0.193 c-5.192-0.12-12.028,1.501-17.155,6.043c-0.179-0.222-0.363-0.44-0.554-0.657c-0.301-0.344-0.63-0.654-0.953-0.976 c17.175-6.242,32.836-19.46,44.769-38.024c4.167-6.481,4.621-14.179,1.216-20.589c-3.663-6.899-11.248-11.143-20.288-11.35 c-2.774-0.064-5.452,0.236-7.958,0.869c0.315-0.521,0.62-1.046,0.914-1.58c7.826-14.214,5.938-31.307-4.928-44.614 c-7.481-9.157-17.874-14.347-29.264-14.608c-10.52-0.243-20.906,3.778-29.244,11.32c-4.998,4.521-9.04,9.755-12.39,15.315 c-4.118-3.708-9.674-5.788-16.022-5.934c-9.325-0.214-20.984,3.978-26.009,13.83c-1.615,3.164-3.056,6.364-4.385,9.569 c0.197-2.495,0.398-5.007,0.603-7.542l0.078-0.973c0.448-5.554-1.32-10.847-4.978-14.903c-3.819-4.234-9.267-6.645-15.343-6.785 c-11.498-0.264-21.135,7.157-22.915,17.648c-0.05,0.293-0.104,0.604-0.164,0.935c-0.654-1.062-1.404-2.07-2.245-3.011 c-1.062-1.185-2.25-2.235-3.539-3.15c5.798-4.693,9.02-11.021,9.038-17.981c0.184-1.81,0.148-3.603-0.104-5.364 c-0.556-7.553-5.381-14.257-12.781-17.319c-4.311-1.776-9.074-2.232-13.796-1.316c-0.86,0.091-1.682,0.217-2.476,0.381 c-4.108,0.847-6.966,2.408-8.857,3.441l-0.308,0.17c-2.632,1.43-5.056,3.257-7.407,5.589c-0.051,0.051-0.101,0.102-0.151,0.153 c-3.195,3.25-5.374,7.323-6.303,11.782c-0.04,0.19-0.076,0.38-0.108,0.572c-1.279,7.396,1.328,14.733,7.164,20.139 c0.875,0.808,1.771,1.485,2.668,2.09c-1.879,1.473-3.582,3.201-4.991,5.212c-8.771,12.521-10.377,28.042-10.796,40.166 c-0.18,5.228-0.067,10.336,0.338,15.228c-1.238,6.408-2.569,12.77-3.962,18.941c-3.325,14.738-6.431,26.925-10.782,38.516 c-0.642,1.712-1.604,4.274-2.745,6.963c-2.376-5.539-4.108-12.06-5.777-18.803c-1.505-6.074-2.793-12.354-3.912-19.075 c7.56-16.749,13.912-35.721,19.359-57.799c7.117-28.839,11.141-54.916,12.303-79.721c0.807-17.203,2.308-49.226-15.983-70.901 c-4.255-5.046-10.731-8.033-17.767-8.195c-7.866-0.181-15.26,3.2-19.78,9.041C53.516,56.906,50.751,99.84,48.312,137.72 l-0.095,1.486c-1.572,24.365-1.062,50.428,1.559,79.678c0.588,6.566,1.154,12.664,1.895,18.847 c-6.832,10.987-14.108,17.441-21.674,19.211c-10.213,2.39-16.878,11.312-15.851,21.219c1.008,9.713,9.033,16.932,19.079,17.164 c1.73,0.04,3.491-0.134,5.239-0.514c8.568-1.869,16.632-5.471,24.142-10.769c3.178,7.66,6.976,14.378,11.433,20.252 c8.859,11.683,21.249,18.289,34.884,18.603c0.001,0,0,0,0,0c7.115,0.163,14.148-1.429,20.657-4.513 c-3.009,12.134-5.419,24.153-7.188,35.925c-4.012,1.257-7.522,2.92-10.274,4.45C85.415,373.621,72.013,412.722,84,440.794 c4.789,11.216,15.075,18.082,27.514,18.371c5.699,0.129,11.462-1.167,16.745-3.758c3.825,8.887,10.618,20.638,23.012,26.973 c5.631,2.878,11.616,4.411,17.792,4.553c21.251,0.488,38.748-15.369,49.684-28.758c3.904-4.779,7.597-9.882,11.382-15.756 c0.266,0.017,0.531,0.026,0.799,0.03c15.031,0.348,27.348-9.32,28.651-22.483c0.347-3.505,0.538-6.927,0.656-10.281 c3.456,1.361,7.075,2.262,10.796,2.669c5.904,6.804,13.584,11.589,22.367,13.813c3.818,0.967,7.726,1.502,11.61,1.592 c9.447,0.216,18.718-2.113,27.596-6.93c2.524-0.708,4.98-1.715,7.234-2.973c4.134-2.309,7.69-4.984,10.777-7.851 c4.704,3.02,10.242,4.733,16.066,4.868c0.003,0,0.003,0,0.003,0c0.619,0.014,1.232-0.007,1.845-0.027 c0.079,0.092,0.147,0.193,0.229,0.286c4.208,4.733,10.364,7.43,17.33,7.588c8.585,0.198,19.216-3.693,24.262-12.787 c4.567,0.168,10.123-0.663,15.17-3.02c1.25,1.787,2.775,3.467,4.629,4.992c4.504,3.697,10.165,5.731,16.38,5.873 c0.002,0,0.002,0,0.002,0c8.712,0.199,17.187-3.33,22.67-9.455c0.36-0.4,0.671-0.792,0.976-1.183 c0.43,0.217,0.869,0.423,1.317,0.617c3.372,1.472,7.022,2.259,10.85,2.35l0,0c2.38,0.053,4.79-0.166,7.143-0.657 c3.312-0.681,9.491-2.524,14.493-7.268c4.212-3.761,7.088-8.527,8.342-13.841c0.216-0.923,0.421-1.849,0.591-2.75 c0.15-0.801,0.262-1.546,0.336-2.272C513.748,378.508,513.024,374.603,510.852,370.297z M184.673,424.505 c-0.515,0.659-1.106,1.435-1.762,2.294c-3.086,4.043-5.702,7.226-7.833,9.531c-0.978-2.565-2.067-6.149-3.238-11.146 c-1.288-5.499-2.011-11.713-2.224-19.104c7.122,6.352,14.165,7.817,18.828,7.926c1.504,0.034,2.956-0.064,4.366-0.262 C190.135,417.385,187.447,420.968,184.673,424.505z M284.011,242.385c-4.814,0.667-9.414,2.849-12.759,6.2 c-1.143,1.14-2.123,2.39-2.938,3.721c-0.048,0.007-0.098,0.014-0.145,0.021c-1.85-0.6-3.771-1.062-5.749-1.382 c-3.062-0.725-6.446-0.894-9.782-0.493c-5.453,0.38-11.172,2.896-15.606,6.731c-0.558-1.497-1.314-2.887-2.223-4.164 c11.942-9.694,18.657-25.747,23.195-36.614c0.556-1.328,1.079-2.58,1.574-3.728c0.259-0.599,0.516-1.2,0.765-1.801 c0.837,3.024,1.861,6.023,3.076,8.987C267.509,229.838,274.728,237.554,284.011,242.385z M318.509,334.69 c-3.81-5.262-10.207-8.583-17.801-8.758c-3.481-0.08-7.256,0.492-10.355,1.57c-10.119,3.517-18.496,10.57-24.134,20.179 c-0.688-1.03-1.384-1.995-2.108-2.891c-3.414-4.224-8.223-7.077-13.587-8.161c-3.213-2.707-7.368-4.464-12.077-4.926 c0.097-0.924,0.196-1.844,0.283-2.783c3.107,1.24,6.515,1.931,10.112,2.013c3.799,0.086,7.749-0.46,12.074-1.671 c8.562-2.395,16.086-7.45,21.654-14.371c2.415,0.963,5.035,1.514,7.756,1.575c3.778,0.086,7.532-0.758,10.854-2.444 c1.977-1.003,3.889-2.125,5.727-3.367c4.281,1.919,9.227,2.723,14.483,2.231c0.164-0.015,0.33-0.031,0.492-0.048 c4.033,4.515,9.877,7.078,16.517,7.23c0.238,0.007,0.473-0.01,0.708-0.01C331.591,323.043,324.672,327.959,318.509,334.69z" fill="#FFF"/></g><g fill="#D43393" id="change2_1"><path d="M372.204,375.46c-0.641,1.326-1.284,2.604-1.974,3.852c-0.369-0.889-0.679-1.655-0.835-2.081 c-2.604-7.146-4.097-14.611-6.27-21.883c-0.619-2.071-1.934-3.385-3.578-4.123c0.613-4.87,0.617-9.582-0.076-13.921 c-0.54-3.39-5.217-3.66-7.762-3.239c-14.328,2.373-24.37,14.631-30.765,26.803c-5.618,10.697-9.896,25.524-5.02,37.294 c-3.578,1.774-7.447,2.611-11.542,1.92c-5.508-0.931-9.526-4.945-12.04-10.3c11.607-9.723,14.247-29.605,12.945-43.601 c-0.383-4.133-6.861-3.513-9.36-2.645c-16.495,5.735-23.081,25.85-19.376,42.575c-10.994,0.015-20.21-23.93-25.64-30.645 c-2.477-3.061-7.129-2.885-10.355-0.879c-0.031-0.998-0.057-1.997-0.087-2.993c-0.156-5.029-11.516-3.284-11.871,1.34 c-0.876,11.381-1.677,22.777-2.543,34.166c-0.888,4.104-1.554,8.264-2.015,12.407c-8.657,11.835-16.958,23.925-26.005,35.471 c-5.505,7.025-20.326,28.464-30.336,20.337c-7.255-5.888-10.364-17.615-12.391-26.262c-2.452-10.47-2.917-21.377-2.7-32.147 c9.675-25.972,9.738-56.286,12.617-83.004c0.986-9.163-15.063-6.979-17.009,0.206c-4.892,18.067-8.613,36.648-10.688,55.361 c-5.832-0.866-12.098,1.31-17.153,4.122c-19.155,10.662-29.354,40.418-20.762,60.535c3.764,8.814,13.956,9.885,21.776,5.729 c6.444-3.422,11.476-8.802,15.778-14.753c0.85,5.673,2.136,11.267,4.05,16.691c3.401,9.646,8.16,20.552,17.781,25.47 c17.917,9.16,36.005-6.86,46.599-19.829c6.891-8.438,12.584-17.539,17.876-26.893c1.637,7.785,18.408,5.865,19.211-2.249 c1.574-15.909-0.418-31.634,3.53-46.777c3.083,5.163,5.884,10.589,9.885,15.047c6.314,7.029,14.607,10.121,23.743,8.74 c3.611,6.913,9.503,12.325,17.719,14.405c10.246,2.593,20.072,0.372,28.776-4.845c1.92-0.323,3.784-1.025,5.222-1.828 c9.168-5.122,14.586-12.949,19.139-21.498c1.453,4.117,3.301,8,5.917,11.306c4.252,5.376,12.528,6.729,18.285,2.8 c6.436-4.397,6.5-12.42,7.345-19.456C382.856,371.119,373.83,372.095,372.204,375.46z M112.847,430.309 C112.798,430.322,112.797,430.319,112.847,430.309L112.847,430.309z M126.074,415.02c-2.333,3.931-5.012,7.591-8.033,11.017 c-0.88,1-1.843,2.003-2.865,2.87c-0.69-1.327-0.891-3.097-1.178-4.513c-1.065-5.254-0.95-10.846-0.302-16.144 c0.965-7.888,4.627-15.658,9.619-21.792c2.33-2.862,7.118-8.082,11.33-7.529c0.696,0.091,1.337,0.303,1.931,0.611 c-0.394,5.02-0.652,10.045-0.786,15.067C133.254,401.703,129.978,408.45,126.074,415.02z M289.253,373.544 c0.135-4.254,0.95-8.428,2.464-12.013C291.309,365.558,290.537,369.765,289.253,373.544z M334.054,367.542 c2.065-6.461,6.351-15.403,12.436-20.497c-0.076,2.943-0.559,5.916-1.326,8.859c-5.269,8.521-8.535,19.375-14.225,28.008 C330.911,378.322,332.474,372.483,334.054,367.542z" fill="inherit"/><path d="M457.188,384.61c0.029-2.324,0.045-4.646,0.047-6.972c0.008-5.458-0.187-10.901-0.694-16.337 c-0.92-9.82-3.932-19.443-9.995-27.305c-3.548-4.594-11.296-3.432-15.009,0.339c-4.649,4.725-8.077,10.047-10.906,15.677 c-0.187-0.357-0.357-0.717-0.556-1.073c-2.633-4.712-10.292-2.335-13.33,0.32c-4.579,4-8.252,8.719-11.33,13.851 c-0.571-4.874-1.545-9.695-3.203-14.417c-1.345-3.82-9.722-2.264-8.898,1.842c3.312,16.546-1.353,33.214-2.909,49.707 c-0.735,7.798,12.679,6.494,15.231,1.206c5.208-10.788,7.962-22.971,13.483-33.54c0.047,6.553-1.753,13.266-3.727,19.459 c-2.527,7.935,13.524,6.599,16.302,1.316c5.911-11.249,8.938-24.258,14.799-35.562c1.503,5.643,1.918,11.637,1.978,17.507 c0.075,7.58-4.171,22.711,2.461,28.164c4.261,3.498,12.088,2.157,15.617-1.786c1.166-1.302,1.671-3.028,2.817-4.255 C462.994,388.862,460.75,385.928,457.188,384.61z" fill="inherit"/><path d="M495.678,377.914c-0.459-0.915-1.974-1.948-2.871-2.283c-2.744-1.024-6.224-1.133-8.931,0.2 c-1.242,0.609-2.318,1.257-3.238,2.111c-0.492,0.342-0.993,0.673-1.491,0.997c-1.604,1.041-3.367,2.334-4.104,4.171 c-0.147,0.366-0.289,0.724-0.422,1.083c-0.195,0.419-0.348,0.852-0.443,1.304c-0.012,0.043-0.027,0.079-0.04,0.123 c0.009-0.02,0.017-0.036,0.028-0.051c-0.13,0.649-0.153,1.337,0,2.078c0.446,2.154,2.171,3.705,4.111,4.55 c2.425,1.058,5.22,1.159,7.784,0.627c2.143-0.44,4.766-1.465,6.402-3.12c1.614-1.378,2.824-3.09,3.33-5.237 c0.159-0.677,0.31-1.354,0.438-2.035c0.053-0.284,0.1-0.566,0.129-0.854C496.529,379.962,496.391,379.324,495.678,377.914z M490.369,386.848c-0.601,0.185-1.2,0.367-1.798,0.552c-0.224,0.024-0.447,0.048-0.671,0.073 C488.745,387.323,489.572,387.107,490.369,386.848z" fill="inherit"/></g><g id="change3_1"><path d="M351.979,260.954c0.036-0.28,0.071-0.562,0.107-0.845c0.666-5.122-8.156-3.798-9.889-0.714 c-5.396,9.604-11.872,21.806-21.43,28.002c-1.197-1.09-1.555-3.574-1.881-4.99c-1.753-7.582-0.627-15.919,0.209-23.54 c0.654-5.977-10.502-4.647-11.593,0.228c-2.497,11.171-6.657,21.689-14.329,29.972c-3.771-8.511-2.943-19.067-3.548-28.131 c-0.216-3.221-7.245-1.79-7.167,1.481c0.033,1.281,0.047,2.56,0.061,3.839c-5.609,1.644-11.351,3.306-17.079,3.225 c-1.874-0.91-4.02-1.558-6.448-1.885c-1.35-0.421-3.138-0.489-4.852-0.212c-0.074,0.003-0.14-0.005-0.216,0 c-3.123,0.135-8.498,3.77-7.983,6.701c-7.234,9.118-15.241,17.622-23.281,26.114c-0.202-12.175-0.966-24.354-1.444-36.575 c-0.101-2.622-5.41-1.326-5.902,0.682c-3.034,12.392-10.824,26.976-19.909,35.87c-7.949,7.783-10.647-2.343-11.179-9.143 c-0.562-7.214,0.423-14.564-0.652-21.733c-0.171-1.131-2.476-0.56-2.473,0.513c0.026,10.615-10.515,47.699,13.938,38.122 c9.834-3.854,15.359-13.246,19.317-23.359c-0.333,8.627-0.67,17.268-1.316,25.861c-6.335,6.842-12.501,13.822-18.117,21.257 c-10.821,14.333-32.932,44.737-14.057,61.678c17.194,15.431,29.726-22.222,33.049-32.281c2.791-8.45,5.864-17.34,7.057-26.18 c0.959-7.102,1.444-14.189,1.636-21.28c5.165-5.807,10.442-11.519,15.741-17.201c0.274-0.294,0.548-0.588,0.822-0.88 c-1.678,11.742,1.523,21.746,17.166,17.367c16.039-4.492,22.813-23.176,17.207-35.179c3.046-0.753,6.072-1.79,9.087-3.065 c0.2,7.59,0.896,15.089,3.896,22.286c1.077,2.584,4.584,3.136,6.974,1.922c5.803-2.941,10.375-7.193,14.026-12.198 c1.673,5.829,5.238,9.958,12.291,9.303c6.732-0.628,12.362-4.678,17.082-10.085c-1.52,4.319-2.59,8.639-3.153,12.697 c-0.916,6.605,12.078,5.442,13.033-0.238c3.75-16.127,14.41-42.58,35.124-35.627c5.249,1.764,15.784-4.141,8.105-8.39 C375.147,246.116,361.914,250.926,351.979,260.954z M195.782,378.255c-1.566,3.187-3.305,6.392-5.711,9.027 c-1.055-1.115-1.777-2.743-2.438-4.013c-4.378-8.443-0.681-18.327,3.133-26.219c5.293-10.963,12.855-20.829,20.553-30.224 c-1.18,8.427-2.862,16.76-5.402,24.927C203.107,360.789,199.96,369.755,195.782,378.255z M252.872,303.723 c-2.564-0.9-0.21-12.233,0.303-14.532c0.793-3.537,1.911-7.143,3.421-10.552c0.514,0.082,1.028,0.158,1.541,0.215 C266.259,284.827,257.712,305.424,252.872,303.723z" fill="#92278F"/></g><g fill="#2F518F" id="change4_1"><path d="M136.539,290.801c11.159-15.871,17.084-35.911,21.43-55.277c4.611,4.708,10.756,7.233,18.388,6.371 c7.872-0.889,14.172-5.156,19.245-10.808c3.009,9.109,8.847,14.621,19.14,13.067c15.718-2.375,23.965-25.971,29.254-38.21 c2.769-6.408,5.129-13.059,7.493-19.715c5.596,4.88,13.903,7.087,23.172,7.187c0.28,6.742,1.777,13.445,4.47,20.013 c6.369,15.54,23.626,19.968,38.741,16.652c18.421-4.044,32.912-17.768,42.813-33.173c4.065-6.324-8.68-7.368-11.947-3.621 c-8.729,10.021-20.456,19.988-33.685,23.161c-12.067,2.896-18.227-6.9-20.614-17.413c-0.609-2.688-0.929-5.327-1.026-7.93 c17.245-4.225,33.964-13.868,40.565-25.857c4.749-8.623,2.814-18.313-3.205-25.685c-9.089-11.127-23.694-10.731-33.97-1.438 c-9.971,9.019-15.285,22.659-19.328,35.15c-0.778,2.409-1.391,4.823-1.853,7.241c-9.906-1.086-16.63-7.54-12.848-22.531 c2.168-8.594-13.781-7.165-16.657-1.526c-5.867,11.502-9.468,24.415-14.282,36.382c-4.876,12.118-9.92,27.011-18.766,37.244 c-1.26-1.964-1.94-4.604-2.511-6.601c-2.423-8.467-2.685-17.688-2.734-26.43c-0.092-16.274,1.238-32.415,2.546-48.618 c0.397-4.953-8.869-4.011-9.575,0.164c-1.623,9.562-8.295,39.144-7.905,62.936c-3.808,4.616-7.883,8.939-11.997,13.303 c-1.461,1.548-3.022,2.783-4.802,3.936c-0.261,0.167-0.542,0.247-0.762,0.292c-4.013-1.218-7.618-10.453-9.045-15.285 c-0.827-2.799-1.57-5.877-2.183-9.114c2.626-15.081,4.681-30.293,6.019-45.509c0.805-9.155-13.176-6.114-16.521-1.338 c-6.086,8.689-7.379,20.71-7.735,31.011c-0.176,5.107-0.046,10.309,0.5,15.463c-1.386,7.318-2.894,14.609-4.529,21.857 c-3.101,13.743-6.491,27.54-11.448,40.745c-3.233,8.613-7.634,20.033-14.92,25.621c-1.866,1.432-1.053,0.943-2.042,1.182 c1.832-0.437-0.481-0.143-0.015,0.036c-0.749-0.105-1.485-0.292-2.212-0.491c-3.002-0.824-6.141-4.067-8.25-6.8 c-7.332-9.485-10.627-21.843-13.457-33.27c-2.087-8.432-3.717-16.99-5.007-25.621c9.046-18.929,15.436-39.076,20.451-59.405 c6.174-25.017,10.62-50.686,11.828-76.448c0.896-19.101,1.088-43.647-12.003-59.161c-2.52-2.988-8.682-2.891-11.143,0.291 c-23.809,30.763-26.053,70.182-28.458,107.468c-1.65,25.581-0.758,51.565,1.526,77.069c0.68,7.588,1.425,15.711,2.562,23.923 c-8.224,14.939-19.444,28.451-35.382,32.182c-4.368,1.022-3.436,5.713,0.982,4.749c15.533-3.387,27.076-14.057,36.036-26.764 c2.877,15.51,7.668,30.694,16.682,42.578C101.404,312.283,124.295,308.213,136.539,290.801z M300.04,162.636 c2.468-5.718,5.457-11.303,9.647-15.944c2.57-2.847,2.224-2.556,5.387,1.373c8.815,10.959-4.612,23.666-20.2,29.458 C296.078,172.513,297.91,167.578,300.04,162.636z M98.388,45.823c6.847,13.752,6.934,31.597,6.688,46.103 c-0.394,23.232-3.955,46.46-8.602,69.183c-3.489,17.067-8.018,33.816-14.032,50.149c-1.577-15.369-2.264-30.853-2.59-46.147 C79.025,126.354,78.437,80.437,98.388,45.823z" fill="inherit"/><path d="M153.543,128.313c1.061,0.982,2.529,1.415,3.895,1.719c2.365,0.528,4.533-0.074,6.77-0.771 c-0.75,0.229-1.499,0.459-2.249,0.688c0.911-0.154,1.809-0.421,2.637-0.828c2.899-1.423,5.945-3.767,5.528-7.36 c0.018-0.141,0.033-0.279,0.059-0.422c0.158-0.869,0.129-1.631-0.082-2.364c0.148-1.476-0.79-2.783-2.314-3.412 c-1.582-0.653-3.226-0.612-4.791-0.18c-0.518,0.021-1.041,0.065-1.582,0.178c-1.754,0.361-2.938,1.057-4.488,1.899 c-1.321,0.717-2.487,1.668-3.556,2.727c-0.924,0.941-1.52,2.056-1.789,3.343C151.239,125.514,152.148,127.021,153.543,128.313z" fill="inherit"/></g></svg>