<?xml version="1.0" encoding="UTF-8" standalone="no"?><svg xmlns="http://www.w3.org/2000/svg" xmlns:xlink="http://www.w3.org/1999/xlink" fill="#2e2e2e" height="447.9" preserveAspectRatio="xMidYMid meet" version="1" viewBox="0.0 0.0 295.4 447.9" width="295.4" zoomAndPan="magnify"><g id="change1_1"><path d="M147.7,447.9L147.7,447.9C66.5,447.9,0,381.4,0,300.2l0-152.5C0,66.5,66.5,0,147.7,0h0 c81.2,0,147.7,66.5,147.7,147.7v152.5C295.4,381.4,228.9,447.9,147.7,447.9z" fill="#05a552"/></g><g id="change2_1"><path d="M264.9,156.8c0,13.7-11.1,24.8-24.8,24.8c-13.7,0-24.8-11.1-24.8-24.8s11.1-24.8,24.8-24.8 C253.8,132,264.9,143.1,264.9,156.8z M55.2,132c-13.7,0-24.8,11.1-24.8,24.8s11.1,24.8,24.8,24.8S80,170.4,80,156.8 S68.9,132,55.2,132z" fill="#ff7f1d"/></g><g id="change3_1"><path d="M107.5,134.4c-19.3,0-33-17-34.5-18.9c-3.7-4.7-2.8-11.5,2-15.2c4.7-3.6,11.5-2.8,15.2,1.9c2.2,2.8,10.2,10.7,17.6,10.5 c4.7-0.1,9.4-3.5,14.2-10.2c3.5-4.9,10.2-6,15.1-2.5c4.9,3.5,6,10.2,2.5,15.1c-11.2,15.6-23.3,19.1-31.5,19.2 C108,134.4,107.7,134.4,107.5,134.4z M191.7,134.4c8.2-0.2,20.3-3.6,31.5-19.2c3.5-4.9,2.3-11.6-2.5-15.1 c-4.9-3.5-11.6-2.4-15.1,2.5c-4.7,6.6-9.5,10.1-14.2,10.2c-7.5,0.2-15.4-7.7-17.6-10.5c-3.7-4.7-10.4-5.6-15.2-1.9 c-4.7,3.7-5.6,10.5-2,15.2c1.5,2,15.2,18.9,34.5,18.9C191.3,134.4,191.5,134.4,191.7,134.4z M149,178.3c8.2-0.2,20.3-3.6,31.5-19.2 c3.5-4.9,2.3-11.6-2.5-15.1c-4.9-3.5-11.6-2.4-15.1,2.5c-4.7,6.6-9.5,10.1-14.2,10.2c-7.4,0.2-15.4-7.7-17.6-10.5 c-3.7-4.7-10.4-5.6-15.2-1.9c-4.7,3.7-5.6,10.5-2,15.2c1.5,2,15.2,18.9,34.5,18.9C148.6,178.3,148.8,178.3,149,178.3z" fill="inherit"/></g></svg>