<?xml version="1.0" encoding="UTF-8" standalone="no"?><svg xmlns="http://www.w3.org/2000/svg" xmlns:xlink="http://www.w3.org/1999/xlink" fill="#2e2e2e" height="454.1" preserveAspectRatio="xMidYMid meet" version="1" viewBox="-2.6 -2.6 454.1 454.1" width="454.1" zoomAndPan="magnify"><g id="change1_1"><path d="M442.6,232.1L250.5,441.2c-8.9,9.7-24,10.3-33.7,1.4L7.7,250.5c-9.7-8.9-10.3-24-1.4-33.7L198.4,7.7 c8.9-9.7,24-10.3,33.7-1.4l209.1,192.1C450.9,207.3,451.5,222.4,442.6,232.1z" fill="#3a5dc4"/></g><g id="change2_1"><path d="M200.5,202.3c0,21.6-17.5,39-39,39s-39-17.5-39-39s17.5-39,39-39S200.5,180.7,200.5,202.3z M287.4,161.1 c-21.6,0-39,17.5-39,39s17.5,39,39,39s39-17.5,39-39S309,161.1,287.4,161.1z" fill="#ffffff"/></g><g id="change3_1"><path d="M359.4,247.5c0,13.4-10.8,24.2-24.2,24.2c-13.4,0-24.2-10.8-24.2-24.2c0-13.4,10.8-24.2,24.2-24.2 C348.5,223.2,359.4,234.1,359.4,247.5z M113.8,225.4c-13.4,0-24.2,10.8-24.2,24.2c0,13.4,10.8,24.2,24.2,24.2S138,263,138,249.6 C138,236.2,127.2,225.4,113.8,225.4z" fill="#ff7f1d"/></g><g id="change4_1"><path d="M185.3,202.3c0,13.1-10.7,23.8-23.8,23.8s-23.8-10.7-23.8-23.8s10.7-23.8,23.8-23.8S185.3,189.1,185.3,202.3z M287.4,176.3 c-13.1,0-23.8,10.7-23.8,23.8s10.7,23.8,23.8,23.8s23.8-10.7,23.8-23.8S300.5,176.3,287.4,176.3z" fill="inherit"/></g><g id="change4_2"><path d="M225.7,261.6c-0.9,0-1.8,0-2.7-0.1c-25.4-1.3-41.9-21.4-42.6-22.2c-3.3-4.1-2.7-10.2,1.4-13.5c4.1-3.3,10.2-2.7,13.5,1.4 c0.3,0.3,12.1,14.4,28.8,15.2c11,0.5,22.1-4.8,33.2-15.9c3.8-3.8,9.8-3.8,13.6,0c3.8,3.8,3.8,9.8,0,13.6 C256.7,254.4,241.5,261.6,225.7,261.6z" fill="inherit"/></g></svg>