<?xml version="1.0" encoding="UTF-8"?><svg xmlns="http://www.w3.org/2000/svg" xmlns:xlink="http://www.w3.org/1999/xlink" height="121.2" preserveAspectRatio="xMidYMid meet" version="1.0" viewBox="-0.0 0.0 126.1 121.2" width="126.1" zoomAndPan="magnify"><g id="change1_1"><path d="M63,41.745c-6.965,0-12.632,5.667-12.632,12.632c0,6.966,5.667,12.633,12.632,12.633s12.632-5.667,12.632-12.633 C75.632,47.412,69.965,41.745,63,41.745z M63,65.01c-5.862,0-10.632-4.77-10.632-10.633c0-5.862,4.77-10.632,10.632-10.632 s10.632,4.77,10.632,10.632C73.632,60.24,68.862,65.01,63,65.01z" fill="inherit"/><path d="M63,45.232c-0.553,0-1,0.447-1,1v7.708l-3.297,3.052c-0.405,0.375-0.43,1.008-0.054,1.413 c0.196,0.213,0.465,0.32,0.733,0.32c0.243,0,0.487-0.088,0.68-0.267l3.617-3.349c0.204-0.188,0.32-0.455,0.32-0.733v-8.145 C64,45.68,63.552,45.232,63,45.232z" fill="inherit"/><path d="M20.251,96.066h-8.999c-0.553,0-1,0.447-1,1v14.023c0,0.553,0.447,1,1,1h8.999c0.553,0,1-0.447,1-1V97.066 C21.251,96.514,20.803,96.066,20.251,96.066z M19.251,98.066v2.291h-6.999v-2.291H19.251z M12.252,110.09v-7.732h6.999v7.732 H12.252z" fill="inherit"/><path d="M33.004,96.066h-8.999c-0.553,0-1,0.447-1,1v14.023c0,0.553,0.447,1,1,1h8.999c0.553,0,1-0.447,1-1V97.066 C34.004,96.514,33.556,96.066,33.004,96.066z M32.004,98.066v2.291h-6.999v-2.291H32.004z M25.005,110.09v-7.732h6.999v7.732 H25.005z" fill="inherit"/><path d="M29.25,58.995h-8.999c-0.553,0-1,0.447-1,1V74.02c0,0.553,0.447,1,1,1h8.999c0.553,0,1-0.447,1-1V59.995 C30.25,59.442,29.802,58.995,29.25,58.995z M28.25,60.995v2.291h-6.999v-2.291H28.25z M21.251,73.02v-7.733h6.999v7.733H21.251z" fill="inherit"/><path d="M125.856,52.799l-13.662-22.674c-0.181-0.301-0.506-0.484-0.856-0.484H71.013L64,21.269V15.27 c2.683,0.307,4.674,1.799,6.602,3.255c1.604,1.212,3.12,2.356,4.9,2.664c0.658,0.114,1.31,0.162,1.939,0.162 c3.218-0.001,5.864-1.25,5.996-1.313c0.347-0.166,0.567-0.517,0.567-0.901V5.933c0-0.344-0.177-0.663-0.468-0.847 c-0.291-0.182-0.656-0.205-0.965-0.055c-0.034,0.017-3.33,1.574-6.729,0.983c-1.303-0.226-2.568-1.182-4.034-2.289 C69.497,1.979,66.877,0,63,0c-0.553,0-1,0.447-1,1v20.269l-7.013,8.372H14.662c-0.351,0-0.676,0.184-0.856,0.484L0.143,52.799 c-0.186,0.308-0.191,0.692-0.015,1.006c0.176,0.313,0.508,0.509,0.867,0.51c0,0,5.064,0.018,11.363,0.035v24.538H7.74 c-0.553,0-1,0.447-1,1v37.706c0,0.553,0.447,1,1,1h27.72v1.591c0,0.553,0.447,1,1,1h13.535h26.01H89.54c0.553,0,1-0.447,1-1v-1.591 h27.72c0.553,0,1-0.447,1-1V79.887c0-0.553-0.447-1-1-1h-4.619V54.349c6.299-0.016,11.363-0.035,11.363-0.035 c0.359-0.001,0.691-0.196,0.867-0.51C126.048,53.491,126.042,53.106,125.856,52.799z M75.502,7.985 c2.561,0.444,5.019-0.116,6.503-0.598v11.083c-1.09,0.415-3.595,1.193-6.163,0.748c-1.302-0.225-2.568-1.182-4.034-2.289 c-2.105-1.59-4.476-3.355-7.808-3.661V2.065c2.683,0.307,4.674,1.799,6.603,3.256C72.206,6.533,73.721,7.678,75.502,7.985z M15.227,31.641h38.084L35.971,52.34c-2.099,0.045-12.271,0.037-22.611,0.012c-0.001,0-0.001,0-0.002,0s-0.001,0-0.002,0 c-3.625-0.009-7.269-0.02-10.591-0.032L15.227,31.641z M14.359,54.354c1.429,0.003,2.894,0.007,4.363,0.009 c3.032,0.006,6.063,0.01,8.741,0.01c1.238,0,2.4-0.001,3.453-0.003c2.167-0.004,3.589-0.007,4.543-0.043v24.56H14.359V54.354z M35.46,80.887v8.369H8.74v-8.369H35.46z M8.74,116.593V91.256h26.72v25.337H8.74z M75.005,86.56h-24.01v-8.373h24.01V86.56z M50.995,88.56h11.014v30.624H50.995V88.56z M64.009,119.184V88.56h10.996v30.624H64.009z M88.54,119.184H77.005V77.187 c0-0.553-0.447-1-1-1h-26.01c-0.553,0-1,0.447-1,1v41.997H37.46v-1.591V79.887V53.678L63,23.19l25.54,30.487v26.209v37.706V119.184 z M90.54,116.593V91.256h26.72v25.337H90.54z M117.26,89.256H90.54v-8.369h26.72V89.256z M111.64,78.887H90.54v-24.56 c0.954,0.036,2.376,0.04,4.543,0.043c1.053,0.002,2.215,0.003,3.453,0.003c2.678,0,5.71-0.004,8.741-0.01 c1.469-0.003,2.935-0.006,4.363-0.009V78.887z M112.642,52.352c-0.001,0-0.001,0-0.002,0c-0.001,0-0.001,0-0.002,0 c-10.34,0.026-20.511,0.034-22.61-0.012l-17.34-20.699h38.084l12.461,20.68C119.911,52.332,116.267,52.343,112.642,52.352z" fill="inherit"/><path d="M114.748,96.066h-8.999c-0.553,0-1,0.447-1,1v14.023c0,0.553,0.447,1,1,1h8.999c0.553,0,1-0.447,1-1V97.066 C115.748,96.514,115.301,96.066,114.748,96.066z M113.748,98.066v2.291h-6.999v-2.291H113.748z M106.749,110.09v-7.732h6.999v7.732 H106.749z" fill="inherit"/><path d="M101.995,96.066h-8.999c-0.553,0-1,0.447-1,1v14.023c0,0.553,0.447,1,1,1h8.999c0.553,0,1-0.447,1-1V97.066 C102.995,96.514,102.548,96.066,101.995,96.066z M100.995,98.066v2.291h-6.999v-2.291H100.995z M93.996,110.09v-7.732h6.999v7.732 H93.996z" fill="inherit"/><path d="M105.749,58.995H96.75c-0.553,0-1,0.447-1,1V74.02c0,0.553,0.447,1,1,1h8.999c0.553,0,1-0.447,1-1V59.995 C106.749,59.442,106.301,58.995,105.749,58.995z M104.749,60.995v2.291H97.75v-2.291H104.749z M97.75,73.02v-7.733h6.999v7.733 H97.75z" fill="inherit"/></g></svg>