<?xml version="1.0" encoding="UTF-8"?><svg xmlns="http://www.w3.org/2000/svg" xmlns:xlink="http://www.w3.org/1999/xlink" height="374.9" preserveAspectRatio="xMidYMid meet" version="1.0" viewBox="0.0 -2.9 500.5 374.9" width="500.5" zoomAndPan="magnify"><g id="change1_1"><path d="M5.15,148.94H0l1.4-14.2c0,0,495.76-5.04,497.44-5.32s1.4,16.24,0,16.52c-1.4,0.28-3.91,0.21-3.91,0.21 S414.86,243.38,339,244.34C263.14,245.31,5.15,148.94,5.15,148.94z M366.04,104.18c-1.25-2-107.11-107.11-111.36-104.12 c-14.23,9.49-106.86,103.62-107.36,105.12c-0.5,1.5,7.66,9.74,7.66,9.74l4.63-5.15l187.86-2.78c0,0,9.08,7.68,10.33,7.93 C359.05,115.17,367.29,106.18,366.04,104.18z" fill="#2B3244"/></g><g id="change2_1"><path d="M154.99,369.54c0,0-148,1.84-149.84,0s-4.68-215.26,0-220.61s486.45-5.47,489.79-2.8 c0.23,23.08,1.13,189.87-0.98,223.56c-4.01,2.28-146.27,1.02-146.27,1.02S174.54,338.48,154.99,369.54z" fill="#7B9A9B"/></g><g id="change3_1"><path d="M154.99,369.54c-0.06-2.27,3.7-257,4.63-259.78c0.93-2.78,92.54-91.62,98.09-93.47 c5.55-1.85,87.91,86.99,89.76,90.69c1.85,3.7,6.13,260.16,0.58,263.64c-1.56,0.62-7.91-1.89-14.8-1.98 c-32.65-0.46-92.67-12.57-156.53,1.06C167.67,369.58,160.76,369.76,154.99,369.54z" fill="#90AEB0"/></g><g id="change1_2"><path d="M250.53,265.63c-0.41,0-0.81,0-1.22,0C249.71,265.63,250.12,265.63,250.53,265.63z M283.18,266.74 c-1.34-0.8-17.02-1.14-32.58-1.11c0.23,16.27,1.01,75.8-0.06,75.44c-1.12-0.37-1.31-63.34-1.34-75.44 c-15.24,0.05-29.94,0.45-30.46,1.1c-0.99,1.23-0.38,64.2-0.07,75.8c22.54,0.3,46.82,0.38,67.96,0.21 C286.41,326.75,285.5,268.13,283.18,266.74z M187.89,220.52c1.19,0.59,52.76,0,52.76,0s0.59-53.36,0.3-54.25 c-0.3-0.89-51.6,0.17-52.49,0.46S187.89,220.52,187.89,220.52z M327.11,166.73c-0.89-0.3-52.19-1.35-52.49-0.46 c-0.3,0.89,0.3,54.25,0.3,54.25s51.58,0.59,52.76,0C327.69,220.52,328,167.03,327.11,166.73z M368.83,339.86 c2.71,2.24,44.5,1.57,45.66,0c1.16-1.57,0.39-79.11,0-80.2s-41.79-0.73-44.89,1.02C366.51,262.45,368.83,339.86,368.83,339.86z M432.68,339.86c2.71,2.24,45.27,2.79,46.43,1.21c1.16-1.57,0-79.24-0.39-80.32c-0.39-1.09-42.18-1.82-45.27-0.06 C430.36,262.45,432.68,339.86,432.68,339.86z M478.47,164.23c-3.1-1.76-46.01,0.03-46.4,1.12c-0.39,1.09-0.77,77.54,0.39,79.11 s42.95,2.24,45.66,0C478.12,244.45,481.57,165.98,478.47,164.23z M413.5,165.28c-3.1-1.76-44.5-2.11-44.89-1.02 c-0.39,1.09-1.16,78.62,0,80.2s42.95,2.24,45.66,0C414.27,244.45,416.59,167.04,413.5,165.28z M136.3,260.69 c-3.1-1.76-44.5-2.11-44.89-1.02c-0.39,1.09-1.16,78.62,0,80.2c1.16,1.57,42.95,2.24,45.66,0 C137.07,339.86,139.4,262.45,136.3,260.69z M72.46,260.69c-3.1-1.76-44.89-1.02-45.27,0.06s-1.55,78.75-0.39,80.32 c1.16,1.57,43.72,1.02,46.43-1.21C73.23,339.86,75.55,262.45,72.46,260.69z M27.79,244.45c2.71,2.24,44.5,1.57,45.66,0 c1.16-1.57,0.77-78.03,0.39-79.11c-0.39-1.09-43.3-2.88-46.4-1.12S27.79,244.45,27.79,244.45z M91.64,244.45 c2.71,2.24,44.5,1.57,45.66,0s0.39-79.11,0-80.2c-0.39-1.09-41.79-0.73-44.89,1.02C89.32,167.04,91.64,244.45,91.64,244.45z" fill="#2B3244"/></g><g id="change4_1"><path d="M388.6,220.74v20.73c-8.08-0.18-15.32-0.52-15.24-1.14c0.06-0.49,0.02-9.2-0.04-20.39 C376.77,220.25,382.42,220.51,388.6,220.74z M388.6,192.55c-6.73,0.15-12.8,0.25-15.41,0.29c0.02,7.18,0.07,15.08,0.11,22.33 c3.46,0.18,9.15,0.46,15.31,0.76V192.55z M388.6,188.27v-19.61c-7.56-0.17-14.47-0.17-15.24,0.14c-0.18,0.07-0.21,8.75-0.19,20.03 L388.6,188.27z M259.91,113.21c34.37-1.75,30.53-57.01-7.71-50.49C225.55,67.27,225.14,114.98,259.91,113.21z M201.34,145.9 c-1.24-2.43-0.94-17.68,0-18.33c3.21-2.22,104.65-3.71,106.95-3.34c2.31,0.37,2.14,20.02,0,21.66S202.57,148.33,201.34,145.9z M341.39,331.55c-0.35-1.17-0.82-2.82-1.13-3.92c2.83-1.51,4.98-4.27,4.98-7.44c0-4.78-3.88-8.66-8.66-8.66 c-5.03,0-8.66,3.88-8.66,8.66c0,3.64,1.67,6.75,4.58,8.03l-0.81,3.22c-2.29,0.07-4,0.22-4.24,0.5c-0.53,0.63-0.34,17.89-0.17,29.14 h-6v-6.53h-7.14v-5.98l-7.6-0.83v-5.55h-0.17v-3.14h-2.6v-81.74l2.6-0.13v-4.02c2.74-0.18,4.42-0.34,4.73-0.48 c2.82-1.27,1.88-10.99,1.88-10.99s-120.58,1.69-121.99,2.96c-1.41,1.27,0,10.57,0,10.57c0.14,0.31,2.7,0.5,6.98,0.59v3.24h3.26 c0,17.22,0,60.79,0,80h-3.26v3.14v5.55l-7.6,0.83v5.98h-7.14v6.53h-4.92c0.18-11.2,0.39-29.42-0.15-30.07 c-0.24-0.29-2-0.44-4.33-0.51l-0.8-3.19c2.96-1.26,4.67-4.39,4.67-8.07c0-4.78-3.63-8.66-8.66-8.66c-4.78,0-8.66,3.88-8.66,8.66 c0,3.14,2.1,5.88,4.89,7.39c-0.31,1.1-0.79,2.78-1.15,3.97c-2.32,0.1-4.02,0.25-4.11,0.39c-0.31,0.47-0.63,38.68-0.63,38.68h14.68 v0.33c43.98,0.56,119.17,0.14,153.41,0.53c0,0.03,0,0.07,0,0.07h18.78c0,0-0.32-38.21-0.63-38.68 C345.5,331.8,343.76,331.65,341.39,331.55z M291.74,339.05h-3.95c0,0-0.09,1.63-0.11,3.14h-72.96v-3.14h-3.14v-80h4.3v-3.2 c21.14-0.2,51.24-1,71.92-1.8v4.04l3.95-0.19V339.05z M192.31,192.79c-0.03-11.04,0.08-21.89,0.43-22.44h0.73 c0.94-0.6,10.19-0.64,19.84-0.51c-0.12,3.74-0.4,12.47-0.69,21.6L192.31,192.79z M236.11,170.35c0,0,0.09,9.27,0.14,19.5 l-18.78,1.26l0.84-21.19C227.68,170.08,236.11,170.35,236.11,170.35z M192.74,216.53c-0.19-0.41-0.36-9.65-0.41-19.76 c3.04-0.06,11.18-0.4,20.15-0.81c-0.28,8.64-0.56,16.94-0.71,21.01C201.98,217.02,192.93,216.94,192.74,216.53z M217.29,195.74 c6.9-0.32,13.84-0.64,18.98-0.89c0.05,11,0.04,21.56-0.17,21.68c-0.2,0.11-9.64,0.32-19.65,0.41L217.29,195.74z M302.26,169.84 c9.65-0.13,18.91-0.08,19.84,0.51h0.73c0.35,0.56,0.46,11.4,0.43,22.44l-20.32-1.36C302.65,182.31,302.38,173.58,302.26,169.84z M297.26,169.91l0.84,21.19l-18.78-1.26c0.06-10.23,0.14-19.5,0.14-19.5S287.89,170.08,297.26,169.91z M303.81,216.97 c-0.15-4.07-0.43-12.37-0.71-21.01c8.97,0.4,17.11,0.75,20.15,0.81c-0.06,10.11-0.22,19.35-0.41,19.76 C322.64,216.94,313.59,217.02,303.81,216.97z M279.3,194.85c5.14,0.25,12.08,0.57,18.98,0.89l0.84,21.2 c-10.02-0.09-19.45-0.3-19.65-0.41C279.26,216.41,279.25,205.85,279.3,194.85z M457.67,189.73L457,168.34 c8.53-0.06,16.69,0.11,17.23,0.2c0.41,0.07,0.52,9.8,0.49,22.09L457.67,189.73z M474.51,218.84l-15.91,0.1l-0.8-25.23l16.9,0.53 C474.67,202.29,474.59,211.09,474.51,218.84z M458.73,223.1c5.82,0.07,11.42,0.1,15.72,0.04c-0.12,10.13-0.23,17.6-0.23,17.6 l-14.92,0.38L458.73,223.1z M453.49,189.51l-17.09-0.91c0.01-10.31,0.22-18.18,0.83-18.82c0.82-0.86,7.79-1.25,15.46-1.38 L453.49,189.51z M454.76,223.05l0.68,18.17l-18.21,0.46c0,0-0.22-8.17-0.43-19.01C441.77,222.8,448.24,222.94,454.76,223.05z M454.6,218.97l-17.87,0.11c-0.15-8.29-0.29-17.69-0.32-26.05l17.24,0.54L454.6,218.97z M410.1,221.42 c0.06,11.45,0.08,20.26,0.08,20.26s-9.5,0.01-18.85-0.16c-0.19-3.94-0.24-11.64-0.23-20.7C397.77,221.06,404.77,221.26,410.1,221.42 z M410.08,216.86c-5.01-0.17-12.11-0.49-18.96-0.81c0.03-7.66,0.1-15.93,0.19-23.56c6.82-0.16,13.92-0.36,18.57-0.6 C409.97,199.78,410.03,208.74,410.08,216.86z M409.83,187.51l-18.47,0.66c0.1-8.18,0.2-15.26,0.26-19.44 c8.72,0.25,17.34,0.7,17.69,1.18C409.53,170.21,409.7,177.59,409.83,187.51z M474.03,284.94l-17.25-0.24l0.3-20.35h16.62 C473.7,264.35,473.85,273.31,474.03,284.94z M474.47,314.56l-18.12-0.39l0.37-25.73h17.35 C474.21,296.86,474.35,306.27,474.47,314.56z M474.72,337.05c-0.08,0.24-9.46,0.29-18.7,0.14l0.28-19.07 c7.23,0.1,13.56,0.16,18.23,0.15C474.67,328.9,474.77,336.9,474.72,337.05z M437.94,288.43h14.59v25.65l-14.62-0.32 C437.89,305.72,437.9,296.62,437.94,288.43z M438.17,264.35h14.36v20.29l-14.57-0.21C438.01,273.28,438.09,264.68,438.17,264.35z M437.91,317.8c5.05,0.1,9.98,0.19,14.61,0.26v19.06c-7.54-0.18-14.16-0.5-14.36-1C438.01,335.74,437.94,328.03,437.91,317.8z M393.43,264.57c8.64-0.17,16.76-0.22,16.76-0.22v19.69l-17.21-0.24L393.43,264.57z M392.87,288.43h17.32v24.73l-17.89-0.39 L392.87,288.43z M392.2,316.78c5.39,0.13,11.52,0.28,17.98,0.43v18.44h-18.43L392.2,316.78z M373.17,265.63 c0.31-0.46,7.49-0.76,15.43-0.96c0,4.34,0,11.22,0,19.06l-15.46-0.22C372.98,273.51,372.94,265.97,373.17,265.63z M373.23,288.43 h15.37c0,7.92,0,16.47,0,24.26l-14.85-0.32C373.57,304.67,373.38,296.11,373.23,288.43z M373.85,316.31 c2.82,0.07,8.04,0.21,14.75,0.38c0,8.13,0,15.05,0,18.96h-14.26C374.35,335.65,374.12,327.27,373.85,316.31z M31.19,190.64 c-0.03-12.29,0.08-22.02,0.49-22.09c0.54-0.09,8.7-0.27,17.23-0.2l-0.68,21.39L31.19,190.64z M47.31,218.94l-15.91-0.1 c-0.09-7.76-0.16-16.55-0.2-24.6l16.9-0.53L47.31,218.94z M31.45,223.14c4.3,0.06,9.91,0.04,15.72-0.04l-0.57,18.02l-14.92-0.38 C31.69,240.74,31.57,233.27,31.45,223.14z M68.68,169.78c0.61,0.64,0.82,8.51,0.83,18.82l-17.09,0.91l0.8-21.12 C60.89,168.53,67.86,168.91,68.68,169.78z M51.15,223.05c6.51-0.1,12.99-0.25,17.96-0.37c-0.21,10.84-0.43,19.01-0.43,19.01 l-18.21-0.46L51.15,223.05z M52.26,193.58l17.24-0.54c-0.03,8.35-0.17,17.75-0.32,26.05l-17.87-0.11L52.26,193.58z M114.8,220.83 c0.02,9.05-0.04,16.76-0.23,20.7c-9.35,0.17-18.85,0.16-18.85,0.16s0.02-8.81,0.08-20.26C101.14,221.26,108.14,221.06,114.8,220.83z M114.79,216.05c-6.85,0.32-13.95,0.64-18.96,0.81c0.05-8.12,0.11-17.07,0.2-24.97c4.65,0.24,11.76,0.44,18.57,0.6 C114.68,200.11,114.76,208.39,114.79,216.05z M114.55,188.17l-18.47-0.66c0.13-9.92,0.3-17.3,0.52-17.6 c0.35-0.47,8.97-0.93,17.69-1.18C114.36,172.92,114.46,179.99,114.55,188.17z M117.3,241.47v-20.73c6.18-0.23,11.84-0.49,15.28-0.8 c-0.06,11.19-0.1,19.9-0.04,20.39C132.62,240.96,125.38,241.29,117.3,241.47z M132.61,215.17c-3.46,0.18-9.15,0.46-15.31,0.76 v-23.38c6.73,0.15,12.8,0.25,15.41,0.29C132.69,200.02,132.65,207.92,132.61,215.17z M132.73,188.82l-15.43-0.55v-19.61 c7.56-0.17,14.47-0.17,15.24,0.14C132.72,168.87,132.76,177.54,132.73,188.82z M48.83,264.35l0.3,20.35l-17.25,0.24 c0.18-11.63,0.33-20.59,0.33-20.59H48.83z M31.83,288.43h17.35l0.37,25.73l-18.12,0.39C31.55,306.27,31.7,296.86,31.83,288.43z M49.61,318.12l0.28,19.07c-9.24,0.16-18.62,0.1-18.7-0.14c-0.05-0.15,0.04-8.15,0.19-18.79C36.06,318.28,42.38,318.22,49.61,318.12 z M67.97,288.43c0.03,8.19,0.05,17.29,0.04,25.33l-14.62,0.32v-25.65H67.97z M67.74,264.35c0.08,0.32,0.16,8.93,0.21,20.08 l-14.57,0.21v-20.29H67.74z M53.39,318.06c4.63-0.07,9.56-0.16,14.61-0.26c-0.03,10.23-0.11,17.93-0.26,18.32 c-0.2,0.5-6.81,0.82-14.36,1V318.06z M112.93,283.8l-17.21,0.24v-19.69c0,0,8.12,0.05,16.76,0.22L112.93,283.8z M113.61,312.78 l-17.89,0.39v-24.73h17.32L113.61,312.78z M113.71,316.78l0.44,18.87H95.72v-18.44C102.19,317.06,108.32,316.91,113.71,316.78z M132.74,265.63c0.23,0.34,0.19,7.88,0.02,17.89l-15.46,0.22c0-7.85,0-14.72,0-19.06C125.25,264.87,132.43,265.17,132.74,265.63z M117.3,288.43h15.37c-0.14,7.67-0.34,16.23-0.52,23.94l-14.85,0.32C117.3,304.91,117.3,296.36,117.3,288.43z M117.3,316.69 c6.71-0.17,11.93-0.3,14.75-0.38c-0.27,10.96-0.5,19.34-0.5,19.34H117.3C117.3,331.74,117.3,324.81,117.3,316.69z" fill="#FFF6E1"/></g><g id="change1_3"><path d="M255.23,88.77c-3.28-4.94-10.73-16.36-9.95-17.41c0.77-1.02,8.53,11.67,11.21,16.13 c0.36-0.17,0.79-0.27,1.29-0.27c0.84-0.01,1.5,0.31,1.96,0.78c5.36-2.28,18.1-7.61,18.35-6.81c0.23,0.74-11.39,5.69-17.58,8.27 c0.23,1.1-0.1,2.33-1.07,3c-0.72,0.49-1.77,0.66-2.61,0.32c-0.27-0.11-0.51-0.26-0.73-0.44C255.03,91.47,254.72,89.93,255.23,88.77z M213.97,255.81c-0.26-0.19-16.01,0-16.01,0v0.88C197.95,256.69,215.6,257,213.97,255.81z M201.21,259.05v0.57c0,0,9.05,0.38,8.83,0 C209.82,259.24,201.21,259.05,201.21,259.05z M304.91,253.47c-0.2-0.67-15.52,0.13-15.79,0.67 C288.9,254.57,305.11,254.14,304.91,253.47z M301.96,257.89c-0.2-0.66-10.22,0-10.22,0v0.6 C291.74,258.49,302.16,258.56,301.96,257.89z M302.39,338.77c0.06-0.25-9.63-0.61-10.18,0 C291.97,339.03,302.33,339.01,302.39,338.77z M201.21,339.05c0,0,9.39-0.19,9.44-0.47c0.06-0.28-9.44-0.28-9.44-0.28V339.05z M304.37,347.74c0.7-1.03-106.41-0.82-106.41-0.82v0.82C197.95,347.74,303.66,348.77,304.37,347.74z M312.35,354.75 c0.44-0.61-120.84-2.35-121.45-0.52C190.73,354.75,311.91,355.36,312.35,354.75z M253.8,360.86c-34.53-0.18-69.51-0.95-69.51,0.15 c0,1.25,135.55,1.13,135.99,0.09C320.49,360.59,287.36,361.04,253.8,360.86z M339.67,328.11c0.17-0.1,0.26-0.44,0-0.29 c-0.26,0.14-1.92,0.88-3.74,0.94c-1.81,0.06-3.44-0.53-3.24-0.23C333.7,329.23,337.26,329.5,339.67,328.11z M331.9,331.4 c0.03,0.04,0.09,0.07,0.18,0.1c1.29,0.45,8.5,0.6,8.5,0.09L331.9,331.4z M172,327.55c0.39-0.54-1.41-0.02-2.84-0.08 c-1.42-0.06-3.81-1.15-3.58-0.57C165.82,327.14,169.23,328.86,172,327.55z M164.15,330.48c-0.12,0.4,9.23,0.49,9.38,0 C173.68,329.99,164.24,330.2,164.15,330.48z M225.75,139.11c-0.46,3.5-3.82,2.07-4.42,1.89c-0.6-0.18-2.24,1.75,0.5,2.79 c2.73,1.04,6.02-0.37,7.3-3.28c1.28-2.91-1.82-6.12-4.18-7.13c-2.34-1.17-1.89-3.14,1.19-3.17c1.94,0.11,2.54-1.87,1.35-2.58 c-3.38-1.3-8.42,1.03-7.27,5.67C221.18,136.2,226.22,135.61,225.75,139.11z M243.04,142c0.19-0.57,0.21-2.73,0.14-5.13l5.59-0.12 c0.03,2.65,0.2,4.99,0.54,5.41c0.8,0.99,1.71,1.1,2.14-0.5c0.43-1.6,0.76-11.17,0.28-12.68c-0.48-1.51-1.59-2.49-2.42-0.8 c-0.27,0.55-0.46,2.92-0.52,5.55c-1.64,0.1-4.43,0.34-5.71,0.35c-0.11-2.43-0.25-4.55-0.32-4.9c-0.28-1.5-2.52-3.17-3.09-0.43 c-0.16,0.75,0.05,12.99,0.83,14.5C241.29,144.73,242.57,143.36,243.04,142z M259.41,127.27c5.26,0.05,7.8,8.99,5.01,13.79 c-2.8,4.8-8.82,4.29-10.94-0.85C251.75,136.03,253.08,127.22,259.41,127.27z M256.66,138.19c1.52,4.53,4.48,3.45,5.56-0.19 c1.08-3.64-0.47-7.02-2.21-7.42C258.27,130.16,254.66,132.2,256.66,138.19z M278.47,140.21c-2.12,5.15-8.14,5.66-10.94,0.85 c-2.8-4.8-0.25-13.75,5.01-13.79C278.87,127.22,280.2,136.03,278.47,140.21z M271.94,130.57c-1.74,0.41-3.29,3.78-2.21,7.42 c1.08,3.64,4.04,4.72,5.56,0.19C277.29,132.2,273.68,130.16,271.94,130.57z M289.94,142.48c0.71-0.51,0.54-2.15,0.11-2.53 c-0.44-0.38-4.89,0.86-5.2,0.69c-1.3-2.35-0.23-10.7-0.91-12.58c-0.34-0.94-2.73-1.16-3.1,0.06c-0.34,1.1-0.1,13.99,1.38,15.22 C283.69,144.57,289.23,142.99,289.94,142.48z M237.57,142.82c0.78-0.81,0.46-2.47-1.33-2.47c-5.04-0.61-5-10.11,0.35-10.22 c0.41-0.01,1.04-0.37,1.23-0.73c0.39-0.75,0.37-1.58-0.48-1.92C225.99,124.88,227.56,147.25,237.57,142.82z" fill="#2B3244"/></g></svg>